{
	"asset":{
		"generator":"Khronos glTF Blender I/O v4.1.63",
		"version":"2.0"
	},
	"scene":0,
	"scenes":[
		{
			"name":"Scene",
			"nodes":[
				0
			]
		}
	],
	"nodes":[
		{
			"mesh":0,
			"name":"SM_Frame_Ornate_01",
			"rotation":[
				0.7071068286895752,
				0,
				0,
				0.7071068286895752
			],
			"scale":[
				0.009999999776482582,
				0.009999999776482582,
				0.009999999776482582
			]
		}
	],
	"materials":[
		{
			"doubleSided":true,
			"name":"lambert1",
			"pbrMetallicRoughness":{
				"baseColorFactor":[
					0.49866655468940735,
					0.21180403232574463,
					0.06846186518669128,
					1
				],
				"roughnessFactor":0.048849403858184814
			}
		}
	],
	"meshes":[
		{
			"name":"Mesh",
			"primitives":[
				{
					"attributes":{
						"POSITION":0,
						"NORMAL":1,
						"TEXCOORD_0":2
					},
					"indices":3,
					"material":0
				}
			]
		}
	],
	"accessors":[
		{
			"bufferView":0,
			"componentType":5126,
			"count":5055,
			"max":[
				69.8897933959961,
				5.399392127990723,
				71.31099700927734
			],
			"min":[
				-69.65838623046875,
				-6.87484073638916,
				-71.36500549316406
			],
			"type":"VEC3"
		},
		{
			"bufferView":1,
			"componentType":5126,
			"count":5055,
			"type":"VEC3"
		},
		{
			"bufferView":2,
			"componentType":5126,
			"count":5055,
			"type":"VEC2"
		},
		{
			"bufferView":3,
			"componentType":5123,
			"count":11067,
			"type":"SCALAR"
		}
	],
	"bufferViews":[
		{
			"buffer":0,
			"byteLength":60660,
			"byteOffset":0,
			"target":34962
		},
		{
			"buffer":0,
			"byteLength":60660,
			"byteOffset":60660,
			"target":34962
		},
		{
			"buffer":0,
			"byteLength":40440,
			"byteOffset":121320,
			"target":34962
		},
		{
			"buffer":0,
			"byteLength":22134,
			"byteOffset":161760,
			"target":34963
		}
	],
	"buffers":[
		{
			"byteLength":183896,
			"uri":"frame3.bin"
		}
	]
}
