{
	"asset":{
		"generator":"Khronos glTF Blender I/O v4.1.63",
		"version":"2.0"
	},
	"extensionsUsed":[
		"KHR_texture_transform"
	],
	"extensionsRequired":[
		"KHR_texture_transform"
	],
	"scene":0,
	"scenes":[
		{
			"name":"Scene",
			"nodes":[
				0
			]
		}
	],
	"nodes":[
		{
			"mesh":0,
			"name":"ClassicWoodFrame"
		}
	],
	"materials":[
		{
			"doubleSided":true,
			"name":"Wood",
			"normalTexture":{
				"extensions":{
					"KHR_texture_transform":{
						"offset":[
							0,
							-1.5
						],
						"scale":[
							2.5,
							2.5
						]
					}
				},
				"index":0,
				"texCoord":1
			},
			"pbrMetallicRoughness":{
				"baseColorTexture":{
					"extensions":{
						"KHR_texture_transform":{
							"offset":[
								0,
								-1.5
							],
							"scale":[
								2.5,
								2.5
							]
						}
					},
					"index":1,
					"texCoord":1
				},
				"metallicFactor":0,
				"metallicRoughnessTexture":{
					"extensions":{
						"KHR_texture_transform":{
							"offset":[
								0,
								-1.5
							],
							"scale":[
								2.5,
								2.5
							]
						}
					},
					"index":2,
					"texCoord":1
				}
			}
		}
	],
	"meshes":[
		{
			"name":"Plane.001",
			"primitives":[
				{
					"attributes":{
						"POSITION":0,
						"NORMAL":1,
						"TEXCOORD_0":2,
						"TEXCOORD_1":3
					},
					"indices":4,
					"material":0
				}
			]
		}
	],
	"textures":[
		{
			"sampler":0,
			"source":0
		},
		{
			"sampler":0,
			"source":1
		},
		{
			"sampler":0,
			"source":2
		}
	],
	"images":[
		{
			"mimeType":"image/png",
			"name":"Wood02_normal",
			"uri":"Wood02_normal.png"
		},
		{
			"mimeType":"image/png",
			"name":"Wood02_basecolor",
			"uri":"Wood02_basecolor.png"
		},
		{
			"mimeType":"image/png",
			"name":"Wood02_PBRset",
			"uri":"Wood02_PBRset.png"
		}
	],
	"accessors":[
		{
			"bufferView":0,
			"componentType":5126,
			"count":1648,
			"max":[
				0.6386232376098633,
				0.6128969788551331,
				0.025958742946386337
			],
			"min":[
				-0.6386232972145081,
				-0.6128474473953247,
				-0.07912275195121765
			],
			"type":"VEC3"
		},
		{
			"bufferView":1,
			"componentType":5126,
			"count":1648,
			"type":"VEC3"
		},
		{
			"bufferView":2,
			"componentType":5126,
			"count":1648,
			"type":"VEC2"
		},
		{
			"bufferView":3,
			"componentType":5126,
			"count":1648,
			"type":"VEC2"
		},
		{
			"bufferView":4,
			"componentType":5123,
			"count":2472,
			"type":"SCALAR"
		}
	],
	"bufferViews":[
		{
			"buffer":0,
			"byteLength":19776,
			"byteOffset":0,
			"target":34962
		},
		{
			"buffer":0,
			"byteLength":19776,
			"byteOffset":19776,
			"target":34962
		},
		{
			"buffer":0,
			"byteLength":13184,
			"byteOffset":39552,
			"target":34962
		},
		{
			"buffer":0,
			"byteLength":13184,
			"byteOffset":52736,
			"target":34962
		},
		{
			"buffer":0,
			"byteLength":4944,
			"byteOffset":65920,
			"target":34963
		}
	],
	"samplers":[
		{
			"magFilter":9729,
			"minFilter":9987
		}
	],
	"buffers":[
		{
			"byteLength":70864,
			"uri":"frame4.bin"
		}
	]
}
