{
	"asset":{
		"generator":"Khronos glTF Blender I/O v4.1.63",
		"version":"2.0"
	},
	"scene":0,
	"scenes":[
		{
			"name":"Scene",
			"nodes":[
				0
			]
		}
	],
	"nodes":[
		{
			"mesh":0,
			"name":"frame_01_Target2"
		}
	],
	"materials":[
		{
			"doubleSided":true,
			"name":"BrushedSteel",
			"pbrMetallicRoughness":{
				"baseColorFactor":[
					0.20366519689559937,
					0.20366519689559937,
					0.20366519689559937,
					1
				],
				"roughnessFactor":0.20000000298023224
			}
		},
		{
			"doubleSided":true,
			"name":"Cork",
			"pbrMetallicRoughness":{
				"baseColorFactor":[
					1,
					0.921749472618103,
					0.8785608410835266,
					1
				],
				"metallicFactor":0.30454546213150024,
				"roughnessFactor":0.20000000298023224
			}
		}
	],
	"meshes":[
		{
			"name":"Plane.007",
			"primitives":[
				{
					"attributes":{
						"POSITION":0,
						"NORMAL":1,
						"TEXCOORD_0":2
					},
					"indices":3,
					"material":0
				},
				{
					"attributes":{
						"POSITION":4,
						"NORMAL":5,
						"TEXCOORD_0":6
					},
					"indices":7,
					"material":1
				}
			]
		}
	],
	"accessors":[
		{
			"bufferView":0,
			"componentType":5126,
			"count":152,
			"max":[
				0.9797507524490356,
				0.9797511100769043,
				0.08738452196121216
			],
			"min":[
				-0.9797511100769043,
				-0.9797507524490356,
				-0.157579243183136
			],
			"type":"VEC3"
		},
		{
			"bufferView":1,
			"componentType":5126,
			"count":152,
			"type":"VEC3"
		},
		{
			"bufferView":2,
			"componentType":5126,
			"count":152,
			"type":"VEC2"
		},
		{
			"bufferView":3,
			"componentType":5123,
			"count":240,
			"type":"SCALAR"
		},
		{
			"bufferView":4,
			"componentType":5126,
			"count":4,
			"max":[
				0.7026423215866089,
				0.7026423215866089,
				-0.11569400876760483
			],
			"min":[
				-0.7026422619819641,
				-0.7026423811912537,
				-0.11569400876760483
			],
			"type":"VEC3"
		},
		{
			"bufferView":5,
			"componentType":5126,
			"count":4,
			"type":"VEC3"
		},
		{
			"bufferView":6,
			"componentType":5126,
			"count":4,
			"type":"VEC2"
		},
		{
			"bufferView":7,
			"componentType":5123,
			"count":6,
			"type":"SCALAR"
		}
	],
	"bufferViews":[
		{
			"buffer":0,
			"byteLength":1824,
			"byteOffset":0,
			"target":34962
		},
		{
			"buffer":0,
			"byteLength":1824,
			"byteOffset":1824,
			"target":34962
		},
		{
			"buffer":0,
			"byteLength":1216,
			"byteOffset":3648,
			"target":34962
		},
		{
			"buffer":0,
			"byteLength":480,
			"byteOffset":4864,
			"target":34963
		},
		{
			"buffer":0,
			"byteLength":48,
			"byteOffset":5344,
			"target":34962
		},
		{
			"buffer":0,
			"byteLength":48,
			"byteOffset":5392,
			"target":34962
		},
		{
			"buffer":0,
			"byteLength":32,
			"byteOffset":5440,
			"target":34962
		},
		{
			"buffer":0,
			"byteLength":12,
			"byteOffset":5472,
			"target":34963
		}
	],
	"buffers":[
		{
			"byteLength":5484,
			"uri":"frame1.bin"
		}
	]
}
