# Blender 4.1.1
# www.blender.org
mtllib classic_wood_frame.mtl
o ClassicWoodFrame
v 0.611597 0.585626 -0.069196
v 0.609798 0.585629 -0.071614
v 0.609798 0.586960 -0.069191
v 0.611070 0.585628 -0.070906
v 0.610837 0.586398 -0.070589
v 0.609798 0.586571 -0.070902
v 0.611070 0.586569 -0.069193
v -0.609799 0.586960 -0.069191
v -0.609799 0.585629 -0.071613
v -0.611598 0.585626 -0.069196
v -0.609799 0.586571 -0.070902
v -0.610837 0.586398 -0.070588
v -0.611071 0.585628 -0.070905
v -0.611071 0.586569 -0.069192
v 0.611597 -0.585475 -0.073533
v 0.609799 -0.586809 -0.073538
v 0.609799 -0.585472 -0.075951
v 0.611071 -0.586418 -0.073537
v 0.610837 -0.586244 -0.074932
v 0.609799 -0.586416 -0.075246
v 0.611071 -0.585473 -0.075243
v -0.611597 -0.585475 -0.073533
v -0.609799 -0.585472 -0.075950
v -0.609799 -0.586809 -0.073538
v -0.611070 -0.585473 -0.075242
v -0.610837 -0.586244 -0.074931
v -0.609798 -0.586416 -0.075246
v -0.611070 -0.586418 -0.073536
v 0.469466 0.479626 -0.007754
v 0.466939 0.481499 -0.007747
v 0.465893 0.480187 -0.010575
v 0.467692 0.478853 -0.010580
v 0.468210 0.480568 -0.007869
v 0.467560 0.480087 -0.008758
v 0.466416 0.480570 -0.008745
v 0.467165 0.479796 -0.010576
v 0.468212 0.479239 -0.008750
v -0.466940 0.481499 -0.007747
v -0.469466 0.479626 -0.007754
v -0.467692 0.478853 -0.010579
v -0.465893 0.480187 -0.010574
v -0.468210 0.480568 -0.007868
v -0.467560 0.480087 -0.008757
v -0.468212 0.479239 -0.008750
v -0.467165 0.479796 -0.010576
v -0.466417 0.480570 -0.008745
v 0.469466 -0.479614 -0.011307
v 0.467692 -0.478835 -0.014126
v 0.465894 -0.480169 -0.014131
v 0.466940 -0.481487 -0.011314
v 0.468212 -0.479225 -0.012300
v 0.467560 -0.480073 -0.012314
v 0.467165 -0.479778 -0.014130
v 0.466417 -0.480556 -0.012305
v 0.468210 -0.480556 -0.011428
v -0.469466 -0.479614 -0.011306
v -0.466939 -0.481487 -0.011313
v -0.465893 -0.480169 -0.014131
v -0.467692 -0.478835 -0.014126
v -0.468210 -0.480556 -0.011428
v -0.467560 -0.480074 -0.012313
v -0.466416 -0.480556 -0.012304
v -0.467165 -0.479779 -0.014129
v -0.468212 -0.479225 -0.012299
v 0.609824 -0.583727 0.020353
v 0.607298 -0.585600 0.020346
v 0.609799 -0.586912 0.018328
v 0.611597 -0.585579 0.018333
v 0.608568 -0.584669 0.020232
v 0.610342 -0.585983 0.019913
v 0.608548 -0.586529 0.019921
v 0.611071 -0.586522 0.018330
v 0.611078 -0.584653 0.019928
v 0.609824 0.583666 0.024676
v 0.611597 0.585522 0.022671
v 0.609799 0.586856 0.022675
v 0.607298 0.585539 0.024683
v 0.611078 0.584594 0.024258
v 0.610342 0.585923 0.024254
v 0.611071 0.586466 0.022674
v 0.608548 0.586469 0.024265
v 0.608568 0.584608 0.024562
v -0.607298 0.585539 0.024684
v -0.609799 0.586856 0.022676
v -0.611597 0.585522 0.022671
v -0.609824 0.583666 0.024677
v -0.608548 0.586469 0.024265
v -0.610342 0.585923 0.024254
v -0.611071 0.586466 0.022675
v -0.611078 0.584594 0.024259
v -0.608568 0.584608 0.024563
v -0.609824 -0.583727 0.020353
v -0.611597 -0.585579 0.018334
v -0.609799 -0.586913 0.018329
v -0.607298 -0.585600 0.020346
v -0.611078 -0.584653 0.019928
v -0.610342 -0.585983 0.019914
v -0.611071 -0.586522 0.018330
v -0.608548 -0.586529 0.019921
v -0.608568 -0.584669 0.020232
v 0.467692 0.478865 -0.021240
v 0.465893 0.480199 -0.021235
v 0.465893 0.478868 -0.023658
v 0.467165 0.479809 -0.021237
v 0.466932 0.479637 -0.022633
v 0.465893 0.479810 -0.022946
v 0.467165 0.478867 -0.022950
v -0.465893 0.480199 -0.021235
v -0.467692 0.478865 -0.021240
v -0.465893 0.478868 -0.023658
v -0.467165 0.479808 -0.021237
v -0.466932 0.479637 -0.022633
v -0.467165 0.478867 -0.022949
v -0.465893 0.479810 -0.022946
v 0.467692 -0.478823 -0.024787
v 0.465893 -0.478821 -0.027205
v 0.465893 -0.480157 -0.024792
v 0.467165 -0.478822 -0.026497
v 0.466932 -0.479592 -0.026186
v 0.465893 -0.479765 -0.026500
v 0.467165 -0.479766 -0.024791
v -0.467692 -0.478824 -0.024787
v -0.465893 -0.480157 -0.024792
v -0.465893 -0.478821 -0.027204
v -0.467165 -0.479766 -0.024790
v -0.466932 -0.479592 -0.026185
v -0.465893 -0.479765 -0.026500
v -0.467165 -0.478822 -0.026496
v 0.549469 -0.542162 -0.000157
v 0.550674 -0.543588 -0.002166
v 0.553200 -0.541714 -0.002159
v 0.551275 -0.540823 -0.000152
v 0.550072 -0.542625 -0.001743
v 0.551245 -0.542138 -0.001751
v 0.551945 -0.542656 -0.002280
v 0.551902 -0.541268 -0.001738
v 0.550741 -0.541766 -0.000071
v 0.575271 -0.558086 0.002819
v 0.572745 -0.559959 0.002812
v 0.575087 -0.561164 0.005622
v 0.576893 -0.559826 0.005627
v 0.574016 -0.559028 0.002698
v 0.575739 -0.560307 0.003795
v 0.573916 -0.560857 0.003801
v 0.576358 -0.560768 0.005707
v 0.576481 -0.558955 0.003808
v -0.572745 -0.559959 0.002813
v -0.575271 -0.558086 0.002820
v -0.576892 -0.559826 0.005627
v -0.575087 -0.561164 0.005622
v -0.574016 -0.559028 0.002699
v -0.575739 -0.560307 0.003796
v -0.576481 -0.558955 0.003809
v -0.576358 -0.560768 0.005708
v -0.573916 -0.560857 0.003801
v -0.553200 -0.541714 -0.002159
v -0.550674 -0.543588 -0.002165
v -0.549469 -0.542162 -0.000156
v -0.551275 -0.540823 -0.000151
v -0.551945 -0.542656 -0.002280
v -0.551245 -0.542138 -0.001750
v -0.550072 -0.542625 -0.001743
v -0.550740 -0.541766 -0.000071
v -0.551902 -0.541268 -0.001738
v 0.505232 -0.506133 -0.012979
v 0.503306 -0.505242 -0.010972
v 0.501501 -0.506581 -0.010977
v 0.502706 -0.508007 -0.012986
v 0.503933 -0.505687 -0.012558
v 0.503277 -0.506557 -0.012571
v 0.502772 -0.506185 -0.010891
v 0.502104 -0.507044 -0.012563
v 0.503976 -0.507075 -0.013100
v 0.527303 -0.522505 -0.008000
v 0.524777 -0.524378 -0.008007
v 0.527119 -0.525583 -0.005198
v 0.528924 -0.524245 -0.005193
v 0.526047 -0.523447 -0.008122
v 0.527771 -0.524726 -0.007025
v 0.525948 -0.525276 -0.007019
v 0.528390 -0.525187 -0.005113
v 0.528512 -0.523374 -0.007012
v -0.528924 -0.524245 -0.005193
v -0.527119 -0.525583 -0.005198
v -0.524777 -0.524378 -0.008007
v -0.527303 -0.522505 -0.008000
v -0.528390 -0.525187 -0.005112
v -0.527771 -0.524726 -0.007024
v -0.525948 -0.525276 -0.007018
v -0.526047 -0.523447 -0.008121
v -0.528512 -0.523374 -0.007011
v -0.502706 -0.508006 -0.012985
v -0.501501 -0.506581 -0.010976
v -0.503306 -0.505242 -0.010971
v -0.505232 -0.506133 -0.012978
v -0.502103 -0.507044 -0.012563
v -0.503277 -0.506557 -0.012570
v -0.502772 -0.506185 -0.010891
v -0.503933 -0.505687 -0.012558
v -0.503976 -0.507075 -0.013100
v 0.550972 0.540580 0.008637
v 0.549167 0.541918 0.008642
v 0.546521 0.540488 0.010640
v 0.549047 0.538615 0.010633
v 0.550438 0.541522 0.008724
v 0.549611 0.540907 0.010224
v 0.547844 0.541452 0.010225
v 0.547791 0.539557 0.010519
v 0.550345 0.539597 0.010218
v 0.574785 0.560907 0.014561
v 0.576590 0.559569 0.014556
v 0.578211 0.560233 0.017372
v 0.575685 0.562106 0.017379
v 0.576056 0.560511 0.014643
v 0.576353 0.560729 0.016382
v 0.577002 0.559901 0.016379
v 0.576956 0.561175 0.017258
v 0.575235 0.561211 0.016384
v 0.501199 0.506362 -0.002442
v 0.498552 0.504932 -0.000443
v 0.501078 0.503059 -0.000450
v 0.503004 0.505023 -0.002447
v 0.499875 0.505895 -0.000859
v 0.501643 0.505351 -0.000860
v 0.499823 0.504001 -0.000564
v 0.502377 0.504040 -0.000866
v 0.502470 0.505966 -0.002359
v 0.528622 0.524012 0.003473
v 0.530243 0.524677 0.006289
v 0.527717 0.526550 0.006296
v 0.526816 0.525351 0.003477
v 0.529034 0.524344 0.005296
v 0.528384 0.525173 0.005298
v 0.528987 0.525619 0.006175
v 0.527267 0.525654 0.005300
v 0.528088 0.524955 0.003560
v 0.527717 -0.526570 0.002395
v 0.530243 -0.524697 0.002402
v 0.528622 -0.524026 -0.000409
v 0.526817 -0.525364 -0.000414
v 0.528987 -0.525638 0.002281
v 0.528385 -0.525190 0.001408
v 0.529034 -0.524362 0.001412
v 0.528088 -0.524968 -0.000328
v 0.527267 -0.525672 0.001407
v 0.501199 -0.506362 -0.006192
v 0.503004 -0.505023 -0.006187
v 0.501078 -0.503063 -0.004176
v 0.498552 -0.504936 -0.004183
v 0.502470 -0.505966 -0.006107
v 0.501643 -0.505354 -0.004603
v 0.502377 -0.504044 -0.004599
v 0.499823 -0.504005 -0.004297
v 0.499876 -0.505899 -0.004606
v 0.575685 -0.562151 0.013215
v 0.578211 -0.560278 0.013222
v 0.576590 -0.559607 0.010411
v 0.574785 -0.560946 0.010406
v 0.576956 -0.561220 0.013101
v 0.576353 -0.560771 0.012228
v 0.577002 -0.559943 0.012232
v 0.576056 -0.560550 0.010492
v 0.575235 -0.561253 0.012227
v 0.549167 -0.541943 0.004628
v 0.550972 -0.540604 0.004633
v 0.549047 -0.538644 0.006644
v 0.546521 -0.540518 0.006637
v 0.550438 -0.541547 0.004713
v 0.549611 -0.540935 0.006217
v 0.550345 -0.539625 0.006221
v 0.547791 -0.539586 0.006523
v 0.547844 -0.541480 0.006214
v -0.549047 0.538615 0.010634
v -0.546521 0.540488 0.010641
v -0.549167 0.541918 0.008642
v -0.550972 0.540580 0.008637
v -0.547791 0.539557 0.010520
v -0.549611 0.540907 0.010224
v -0.547844 0.541452 0.010225
v -0.550438 0.541522 0.008725
v -0.550345 0.539597 0.010218
v -0.574785 0.560907 0.014561
v -0.575685 0.562106 0.017379
v -0.578211 0.560233 0.017373
v -0.576590 0.559569 0.014556
v -0.575235 0.561210 0.016384
v -0.576353 0.560729 0.016382
v -0.576956 0.561175 0.017258
v -0.577002 0.559900 0.016379
v -0.576056 0.560511 0.014644
v -0.503004 0.505023 -0.002446
v -0.501078 0.503059 -0.000450
v -0.498552 0.504932 -0.000443
v -0.501199 0.506362 -0.002441
v -0.502377 0.504040 -0.000865
v -0.501643 0.505351 -0.000859
v -0.499823 0.504001 -0.000564
v -0.499875 0.505895 -0.000858
v -0.502470 0.505966 -0.002359
v -0.528622 0.524012 0.003473
v -0.526817 0.525351 0.003478
v -0.527717 0.526550 0.006296
v -0.530243 0.524677 0.006289
v -0.528088 0.524955 0.003561
v -0.528385 0.525173 0.005299
v -0.527267 0.525654 0.005301
v -0.528987 0.525619 0.006175
v -0.529034 0.524344 0.005296
v -0.550972 -0.540604 0.004633
v -0.549167 -0.541943 0.004628
v -0.546521 -0.540518 0.006637
v -0.549047 -0.538645 0.006644
v -0.550438 -0.541547 0.004714
v -0.549611 -0.540935 0.006218
v -0.547844 -0.541480 0.006214
v -0.547791 -0.539586 0.006523
v -0.550345 -0.539625 0.006221
v -0.575685 -0.562151 0.013216
v -0.574785 -0.560946 0.010406
v -0.576590 -0.559607 0.010411
v -0.578211 -0.560278 0.013223
v -0.575235 -0.561253 0.012227
v -0.576353 -0.560771 0.012229
v -0.576056 -0.560550 0.010492
v -0.577002 -0.559943 0.012232
v -0.576956 -0.561220 0.013102
v -0.501199 -0.506362 -0.006192
v -0.498552 -0.504936 -0.004183
v -0.501078 -0.503063 -0.004176
v -0.503004 -0.505023 -0.006187
v -0.499875 -0.505899 -0.004605
v -0.501643 -0.505355 -0.004602
v -0.499823 -0.504005 -0.004297
v -0.502377 -0.504044 -0.004599
v -0.502470 -0.505966 -0.006106
v -0.526816 -0.525364 -0.000413
v -0.528622 -0.524026 -0.000409
v -0.530243 -0.524697 0.002403
v -0.527717 -0.526570 0.002396
v -0.528088 -0.524968 -0.000328
v -0.528384 -0.525190 0.001409
v -0.529033 -0.524362 0.001412
v -0.528987 -0.525638 0.002282
v -0.527267 -0.525672 0.001407
v -0.503306 0.505253 -0.007229
v -0.501501 0.506591 -0.007224
v -0.502706 0.508022 -0.009223
v -0.505232 0.506148 -0.009229
v -0.502772 0.506195 -0.007141
v -0.503277 0.506571 -0.008818
v -0.502104 0.507058 -0.008807
v -0.503976 0.507091 -0.009344
v -0.503933 0.505701 -0.008812
v -0.527119 0.525580 -0.001305
v -0.528924 0.524242 -0.001310
v -0.527303 0.522509 -0.004130
v -0.524777 0.524382 -0.004123
v -0.528390 0.525184 -0.001222
v -0.527771 0.524727 -0.003138
v -0.528512 0.523376 -0.003135
v -0.526047 0.523451 -0.004244
v -0.525948 0.525277 -0.003128
v -0.549469 0.542148 0.003859
v -0.550674 0.543578 0.001861
v -0.553200 0.541705 0.001854
v -0.551275 0.540809 0.003855
v -0.550072 0.542615 0.002276
v -0.551245 0.542128 0.002265
v -0.551945 0.542647 0.001740
v -0.551902 0.541258 0.002272
v -0.550741 0.541752 0.003942
v -0.575087 0.561137 0.009779
v -0.576893 0.559798 0.009774
v -0.575271 0.558065 0.006954
v -0.572745 0.559938 0.006960
v -0.576358 0.560741 0.009861
v -0.575739 0.560284 0.007946
v -0.576481 0.558932 0.007949
v -0.574016 0.559007 0.006839
v -0.573916 0.560834 0.007956
v 0.505232 0.506148 -0.009230
v 0.502706 0.508022 -0.009223
v 0.501501 0.506591 -0.007224
v 0.503306 0.505253 -0.007229
v 0.503976 0.507091 -0.009344
v 0.503277 0.506571 -0.008819
v 0.502103 0.507058 -0.008807
v 0.502772 0.506195 -0.007142
v 0.503933 0.505701 -0.008812
v 0.527119 0.525580 -0.001305
v 0.524777 0.524382 -0.004123
v 0.527303 0.522509 -0.004130
v 0.528924 0.524242 -0.001310
v 0.525948 0.525277 -0.003128
v 0.527771 0.524727 -0.003138
v 0.526047 0.523451 -0.004245
v 0.528512 0.523376 -0.003135
v 0.528390 0.525184 -0.001222
v 0.549469 0.542148 0.003859
v 0.551275 0.540809 0.003854
v 0.553200 0.541705 0.001853
v 0.550674 0.543578 0.001860
v 0.550740 0.541752 0.003942
v 0.551245 0.542128 0.002265
v 0.551902 0.541258 0.002271
v 0.551945 0.542647 0.001739
v 0.550072 0.542615 0.002276
v 0.575087 0.561137 0.009778
v 0.572745 0.559938 0.006960
v 0.575271 0.558065 0.006953
v 0.576892 0.559798 0.009773
v 0.573916 0.560834 0.007955
v 0.575739 0.560284 0.007945
v 0.574016 0.559007 0.006839
v 0.576481 0.558932 0.007948
v 0.576358 0.560741 0.009861
vn -0.0000 1.0000 0.0011
vn -0.2226 -0.0036 0.9749
vn -1.0000 -0.0000 -0.0000
vn -0.0000 -1.0000 -0.0011
vn -0.0000 0.0037 -1.0000
vn -0.0000 -0.9988 -0.0480
vn -0.0000 -0.2976 0.9547
vn -0.0000 0.2909 0.9567
vn 0.2226 -0.0036 0.9749
vn 0.9980 -0.0002 0.0630
vn 1.0000 -0.0000 -0.0000
vn -0.0000 0.9990 -0.0457
vn -0.0000 -0.9990 0.0457
vn 0.9980 0.0002 -0.0631
vn -0.9980 0.0002 -0.0631
vn -0.9980 -0.0002 0.0631
vn -0.9980 -0.0002 0.0630
vn 0.9980 -0.0002 0.0631
vn -0.0000 0.9988 0.0479
vn -0.0000 0.9988 0.0480
vn 0.8709 0.4308 -0.2367
vn 0.3788 0.5138 -0.7697
vn 0.2570 0.9475 -0.1902
vn -0.2570 0.9475 -0.1901
vn -0.3789 0.5138 -0.7697
vn -0.8709 0.4307 -0.2367
vn 0.8713 -0.4292 -0.2378
vn 0.2571 -0.9470 -0.1924
vn 0.3797 -0.5091 -0.7724
vn -0.8713 -0.4292 -0.2378
vn -0.3797 -0.5092 -0.7724
vn -0.2571 -0.9470 -0.1925
vn -0.4970 -0.4801 0.7229
vn -0.3374 -0.6416 0.6889
vn -0.3278 -0.9108 0.2508
vn -0.7980 -0.5242 0.2973
vn 0.3374 -0.6416 0.6889
vn 0.4970 -0.4801 0.7228
vn 0.7980 -0.5242 0.2973
vn 0.3279 -0.9108 0.2508
vn -0.4979 0.4756 0.7252
vn -0.7986 0.5224 0.2987
vn -0.3283 0.9100 0.2531
vn -0.3382 0.6379 0.6919
vn 0.4979 0.4756 0.7252
vn 0.3382 0.6379 0.6919
vn 0.3283 0.9100 0.2532
vn 0.7986 0.5224 0.2987
vn 0.1196 -0.1633 0.9793
vn 0.1184 -0.1650 0.9792
vn 0.2662 -0.8685 0.4180
vn 0.7584 -0.4254 0.4939
vn 0.1197 0.1562 0.9804
vn 0.7592 0.4221 0.4953
vn 0.2667 0.8671 0.4208
vn 0.1185 0.1578 0.9803
vn -0.1185 0.1578 0.9803
vn -0.2667 0.8671 0.4208
vn -0.7592 0.4221 0.4954
vn -0.1197 0.1562 0.9804
vn -0.1196 -0.1633 0.9793
vn -0.7584 -0.4254 0.4939
vn -0.2662 -0.8685 0.4181
vn -0.1184 -0.1649 0.9792
vn -0.8709 -0.4307 0.2367
vn -0.2569 -0.9476 0.1901
vn -0.3789 -0.5138 0.7697
vn 0.2569 -0.9476 0.1901
vn 0.8709 -0.4307 0.2367
vn 0.3789 -0.5138 0.7697
vn -0.8713 0.4293 0.2378
vn -0.3797 0.5092 0.7724
vn -0.2573 0.9470 0.1925
vn 0.8713 0.4293 0.2378
vn 0.2573 0.9470 0.1925
vn 0.3797 0.5092 0.7724
vn 0.3108 -0.8902 0.3331
vn 0.2520 -0.3569 0.8995
vn 0.2628 -0.3439 0.9015
vn 0.7755 -0.4945 0.3925
vn -0.3993 0.2969 0.8674
vn -0.2132 0.5130 0.8315
vn -0.2843 0.9030 0.3223
vn -0.8019 0.4572 0.3847
vn 0.2133 0.5130 0.8315
vn 0.3993 0.2969 0.8674
vn 0.8019 0.4571 0.3847
vn 0.2842 0.9030 0.3223
vn -0.2628 -0.3439 0.9015
vn -0.2520 -0.3569 0.8995
vn -0.3108 -0.8902 0.3331
vn -0.7755 -0.4945 0.3925
vn 0.2627 -0.3438 0.9015
vn 0.3107 -0.8902 0.3331
vn 0.2519 -0.3569 0.8995
vn -0.2843 0.9029 0.3223
vn -0.8018 0.4572 0.3848
vn 0.8019 0.4572 0.3847
vn 0.2843 0.9029 0.3223
vn 0.2133 0.5129 0.8315
vn -0.2519 -0.3569 0.8995
vn -0.3107 -0.8902 0.3330
vn 0.7367 0.3918 0.5511
vn 0.2493 0.8462 0.4709
vn 0.1121 0.1496 0.9824
vn 0.1137 0.1476 0.9825
vn -0.3435 -0.9163 0.2061
vn -0.8007 -0.5473 0.2438
vn -0.5073 -0.5014 0.7008
vn -0.3527 -0.6550 0.6683
vn 0.1136 0.1476 0.9825
vn 0.7367 0.3919 0.5511
vn -0.8007 -0.5473 0.2439
vn -0.5073 -0.5015 0.7008
vn -0.3529 -0.6550 0.6682
vn -0.3435 -0.9162 0.2063
vn -0.3537 0.6515 0.6711
vn -0.5082 0.4972 0.7032
vn -0.8012 0.5458 0.2452
vn -0.3438 0.9156 0.2085
vn 0.2488 -0.8480 0.4680
vn 0.7359 -0.3955 0.5495
vn 0.1136 -0.1548 0.9814
vn 0.1121 -0.1567 0.9813
vn -0.3537 0.6515 0.6712
vn -0.3439 0.9156 0.2084
vn 0.2488 -0.8479 0.4681
vn 0.7359 -0.3955 0.5496
vn 0.1135 -0.1548 0.9814
vn -0.1136 0.1476 0.9825
vn -0.1122 0.1496 0.9824
vn -0.2494 0.8462 0.4709
vn -0.7367 0.3919 0.5511
vn 0.3434 -0.9163 0.2062
vn 0.3528 -0.6550 0.6682
vn 0.5073 -0.5015 0.7008
vn 0.8006 -0.5473 0.2438
vn -0.1137 0.1476 0.9825
vn -0.1121 0.1496 0.9824
vn -0.2493 0.8462 0.4709
vn 0.8007 -0.5473 0.2438
vn -0.7359 -0.3955 0.5496
vn -0.2488 -0.8480 0.4680
vn -0.1121 -0.1568 0.9813
vn -0.1136 -0.1548 0.9814
vn 0.3535 0.6515 0.6712
vn 0.3438 0.9156 0.2084
vn 0.8012 0.5458 0.2452
vn 0.5082 0.4971 0.7033
vn -0.1120 -0.1567 0.9813
vn -0.1135 -0.1548 0.9814
vn 0.3439 0.9156 0.2085
vn 0.5082 0.4972 0.7032
vn 0.3537 0.6515 0.6711
vn -0.7763 0.4921 0.3940
vn -0.3114 0.8890 0.3357
vn -0.2524 0.3508 0.9018
vn -0.2632 0.3377 0.9037
vn 0.2838 -0.9040 0.3198
vn 0.8011 -0.4596 0.3834
vn 0.3988 -0.3029 0.8656
vn 0.2128 -0.5180 0.8285
vn -0.3114 0.8891 0.3356
vn 0.2839 -0.9040 0.3198
vn 0.8011 -0.4596 0.3833
vn 0.2632 0.3378 0.9037
vn 0.2524 0.3508 0.9018
vn 0.3113 0.8891 0.3356
vn 0.7763 0.4921 0.3940
vn -0.2838 -0.9040 0.3197
vn -0.2128 -0.5180 0.8285
vn -0.3987 -0.3029 0.8656
vn -0.8012 -0.4595 0.3833
vn 0.7762 0.4922 0.3940
vn -0.2838 -0.9040 0.3198
vn -0.2127 -0.5180 0.8285
vn -0.3988 -0.3029 0.8656
vn -0.8011 -0.4596 0.3833
vn 0.4864 0.0032 -0.8737
vn 0.9556 0.0011 -0.2945
vn -0.0000 0.6026 -0.7981
vn -0.0000 0.9751 -0.2216
vn -0.4864 0.0032 -0.8737
vn -0.9556 0.0011 -0.2945
vn -0.0000 -0.5981 -0.8014
vn -0.0000 -0.9746 -0.2240
vn 0.9506 -0.0011 0.3104
vn 0.3188 -0.0035 0.9478
vn -0.0000 0.9716 0.2365
vn -0.0000 0.4101 0.9120
vn -0.9506 -0.0011 0.3103
vn -0.3188 -0.0035 0.9478
vn -0.0000 -0.9722 0.2341
vn -0.0000 -0.4161 0.9093
vn -0.8730 0.4876 0.0005
vn -0.2937 0.9559 0.0011
vn 0.8730 0.4876 0.0005
vn 0.2936 0.9559 0.0011
vn -0.2936 -0.9559 -0.0011
vn -0.8731 -0.4876 -0.0006
vn 0.2936 -0.9559 -0.0011
vn 0.8730 -0.4876 -0.0005
vn -0.6213 -0.0029 0.7836
vn -0.9619 -0.0010 0.2733
vn -0.0000 -0.7320 0.6813
vn -0.0000 -0.9788 0.2050
vn 0.6213 -0.0029 0.7835
vn 0.9619 -0.0010 0.2733
vn -0.0000 0.7288 0.6847
vn -0.0000 0.9783 0.2073
vn -0.0000 -0.9864 0.1641
vn -0.0000 -0.7433 0.6689
vn 0.9754 -0.0008 0.2205
vn 0.6341 -0.0029 0.7732
vn 0.1588 0.0851 0.9836
vn 0.0652 0.2088 0.9758
vn 0.1588 0.0850 0.9836
vn -0.9556 -0.0011 0.2945
vn -0.4864 -0.0032 0.8737
vn -0.0000 -0.9752 0.2215
vn -0.0000 -0.6026 0.7980
vn 0.9556 -0.0011 0.2945
vn 0.4864 -0.0032 0.8737
vn -0.0000 0.9746 0.2240
vn -0.0000 0.5982 0.8014
vn -0.8730 0.4877 0.0005
vn 0.8730 0.4878 0.0005
vn 0.2937 0.9559 0.0011
vn 0.8730 -0.4877 -0.0006
vn -0.8730 -0.4877 -0.0005
vn -0.0000 0.9592 0.2828
vn -0.0000 0.3962 0.9182
vn -0.0000 -0.9864 0.1642
vn 0.0652 -0.2158 0.9743
vn 0.1587 -0.0923 0.9830
vn -0.0000 -0.9599 0.2803
vn -0.0000 -0.4022 0.9156
vn -0.1588 0.0851 0.9836
vn -0.0652 0.2088 0.9758
vn -0.0000 0.9861 0.1664
vn -0.0000 0.7402 0.6724
vn -0.9298 -0.0014 0.3680
vn -0.3072 -0.0035 0.9516
vn -0.0000 -0.9599 0.2802
vn -0.0000 -0.4021 0.9156
vn -0.0000 0.9860 0.1665
vn -0.1587 -0.0923 0.9830
vn -0.0651 -0.2158 0.9743
vn -0.9299 -0.0014 0.3679
vn -0.0000 0.9592 0.2829
vn -0.2930 -0.9541 0.0621
vn -0.8703 -0.4864 0.0772
vn -0.0000 0.7403 0.6723
vn -0.2930 0.9541 -0.0622
vn -0.8703 0.4864 -0.0772
vn -0.2930 -0.9539 -0.0643
vn -0.8705 -0.4860 -0.0784
vn -0.2930 0.9541 -0.0621
vn -0.0000 -0.4022 0.9155
vn 0.2931 -0.9539 -0.0643
vn 0.8704 -0.4860 -0.0783
vn 0.9754 -0.0008 0.2204
vn 0.2929 0.9541 -0.0621
vn 0.8703 0.4864 -0.0772
vn -0.3073 -0.0035 0.9516
vn -0.8705 0.4859 0.0784
vn -0.2931 0.9539 0.0643
vn -0.0000 -0.7433 0.6690
vn -0.0000 0.3961 0.9182
vn 0.8705 0.4860 0.0784
vn 0.2932 0.9539 0.0643
vn -0.0000 -0.7432 0.6691
vn -0.0000 -0.9865 0.1640
vn -0.6341 -0.0029 0.7732
vn -0.9754 -0.0008 0.2205
vn 0.3072 -0.0035 0.9516
vn 0.9298 -0.0014 0.3680
vn 0.3073 -0.0035 0.9516
vn 0.9299 -0.0014 0.3679
vn -0.0652 -0.2158 0.9743
vn -0.9754 -0.0008 0.2204
vn -0.6342 -0.0029 0.7732
vn 0.2930 -0.9541 0.0621
vn 0.8703 -0.4864 0.0772
vn 0.2931 0.9539 0.0643
vn 0.8705 0.4860 0.0783
vn -0.2931 -0.9539 -0.0643
vn -0.8705 -0.4860 -0.0783
vn 0.8705 -0.4859 -0.0783
vn 0.2930 -0.9540 -0.0643
vn 0.8703 0.4864 -0.0773
vn 0.2929 0.9541 -0.0622
vn -0.8705 0.4860 0.0784
vn -0.2929 -0.9541 0.0622
vt 0.547949 0.472650
vt 0.547962 0.905894
vt 0.523301 0.905125
vt 0.523333 0.473430
vt 0.850301 0.543891
vt 0.850533 0.015600
vt 0.862391 0.004796
vt 0.862084 0.554850
vt 0.984897 0.003079
vt 0.984893 0.556686
vt 0.958951 0.555789
vt 0.959255 0.003874
vt 0.642381 0.472650
vt 0.642394 0.905894
vt 0.617704 0.905129
vt 0.617783 0.473431
vt 0.453451 0.003066
vt 0.453447 0.549577
vt 0.003074 0.551490
vt 0.003078 0.004979
vt 0.802235 0.052639
vt 0.802114 0.506870
vt 0.799331 0.506592
vt 0.799531 0.052914
vt 0.462315 0.521691
vt 0.462521 0.856880
vt 0.459689 0.856602
vt 0.459556 0.521972
vt 0.509806 0.484997
vt 0.509943 0.893621
vt 0.508659 0.893549
vt 0.508568 0.485067
vt 0.486178 0.502067
vt 0.486378 0.876661
vt 0.478292 0.869365
vt 0.478072 0.509299
vt 0.602057 0.485865
vt 0.602046 0.892816
vt 0.594013 0.885575
vt 0.593977 0.493084
vt 0.899071 0.507395
vt 0.898927 0.052434
vt 0.910345 0.042096
vt 0.910324 0.517626
vt 0.557966 0.857311
vt 0.557835 0.521328
vt 0.569455 0.510841
vt 0.569433 0.867734
vt 0.463577 0.857272
vt 0.463353 0.521306
vt 0.474930 0.510887
vt 0.475086 0.867761
vt 0.924630 0.527529
vt 0.924710 0.032133
vt 0.931552 0.025974
vt 0.931384 0.533648
vt 0.510952 0.893964
vt 0.510817 0.484661
vt 0.522410 0.474259
vt 0.522386 0.904301
vt 0.815328 0.518380
vt 0.815627 0.041053
vt 0.816855 0.040801
vt 0.816592 0.518641
vt 0.897902 0.052813
vt 0.898049 0.507013
vt 0.895266 0.506736
vt 0.895198 0.053090
vt 0.556787 0.521714
vt 0.556921 0.856921
vt 0.554093 0.856643
vt 0.554023 0.521996
vt 0.605271 0.893997
vt 0.605370 0.484661
vt 0.616863 0.474258
vt 0.616785 0.904301
vt 0.803136 0.507253
vt 0.803260 0.052261
vt 0.814682 0.041935
vt 0.814387 0.517497
vt 0.828771 0.527435
vt 0.828972 0.032003
vt 0.835818 0.025834
vt 0.835526 0.533560
vt 0.942954 0.016933
vt 0.942774 0.542751
vt 0.934672 0.535289
vt 0.934800 0.024345
vt 0.604348 0.485006
vt 0.604271 0.893663
vt 0.603038 0.893594
vt 0.603064 0.485077
vt 0.570380 0.868624
vt 0.570409 0.509947
vt 0.571653 0.509690
vt 0.571663 0.868889
vt 0.825766 0.033179
vt 0.825528 0.526251
vt 0.817542 0.519081
vt 0.817815 0.040364
vt 0.923712 0.032466
vt 0.923635 0.527189
vt 0.922369 0.527116
vt 0.922493 0.032535
vt 0.849492 0.015946
vt 0.849239 0.543534
vt 0.847946 0.543461
vt 0.848247 0.016015
vt 0.932371 0.534563
vt 0.932548 0.025055
vt 0.933800 0.024799
vt 0.933662 0.534828
vt 0.489683 0.877860
vt 0.489442 0.500872
vt 0.496322 0.494694
vt 0.496485 0.883993
vt 0.946149 0.543987
vt 0.946293 0.015708
vt 0.958196 0.004795
vt 0.957896 0.554867
vt 0.847209 0.016822
vt 0.846914 0.542653
vt 0.838818 0.535204
vt 0.839061 0.024207
vt 0.911264 0.518506
vt 0.911292 0.041212
vt 0.912521 0.040959
vt 0.912526 0.518766
vt 0.945241 0.016055
vt 0.945097 0.543631
vt 0.943807 0.543559
vt 0.943993 0.016126
vt 0.507566 0.485851
vt 0.507663 0.892770
vt 0.499658 0.885579
vt 0.499458 0.493114
vt 0.580708 0.502030
vt 0.580721 0.876648
vt 0.572629 0.869335
vt 0.572608 0.509251
vt 0.836515 0.534476
vt 0.836812 0.024917
vt 0.838060 0.024660
vt 0.837807 0.534743
vt 0.584032 0.877854
vt 0.583964 0.500841
vt 0.590849 0.494663
vt 0.590831 0.883987
vt 0.591771 0.884869
vt 0.591797 0.493775
vt 0.593029 0.493520
vt 0.593049 0.885131
vt 0.827974 0.032336
vt 0.827775 0.527095
vt 0.826509 0.527022
vt 0.826754 0.032406
vt 0.488427 0.501210
vt 0.488670 0.877517
vt 0.487379 0.877445
vt 0.487184 0.501280
vt 0.921504 0.033310
vt 0.921388 0.526347
vt 0.913474 0.519204
vt 0.913482 0.040521
vt 0.497428 0.884874
vt 0.497268 0.493807
vt 0.498502 0.493551
vt 0.498704 0.885136
vt 0.582949 0.501178
vt 0.583018 0.877510
vt 0.581731 0.877439
vt 0.581707 0.501248
vt 0.476037 0.868654
vt 0.475881 0.509995
vt 0.477122 0.509737
vt 0.477323 0.868918
vt 0.889089 0.556669
vt 0.889640 0.556701
vt 0.889548 0.557141
vt 0.889104 0.557208
vt 0.453475 0.002537
vt 0.453905 0.002611
vt 0.453988 0.003040
vt 0.547963 0.472140
vt 0.548375 0.472209
vt 0.548454 0.472619
vt 0.548454 0.905923
vt 0.548377 0.906322
vt 0.547976 0.906389
vt 0.002537 0.004955
vt 0.002621 0.004527
vt 0.003051 0.004454
vt 0.984913 0.002537
vt 0.985355 0.002608
vt 0.985444 0.003047
vt 0.889094 0.003079
vt 0.889109 0.002537
vt 0.889552 0.002608
vt 0.889641 0.003047
vt 0.642886 0.905923
vt 0.642809 0.906322
vt 0.642408 0.906390
vt 0.453988 0.549601
vt 0.453904 0.550029
vt 0.453474 0.550102
vt 0.985444 0.556718
vt 0.985352 0.557158
vt 0.984908 0.557225
vt 0.003050 0.552019
vt 0.002619 0.551945
vt 0.002537 0.551516
vt 0.642395 0.472140
vt 0.642807 0.472209
vt 0.642886 0.472619
vt 0.802767 0.507718
vt 0.802468 0.507513
vt 0.802626 0.507083
vt 0.462833 0.521477
vt 0.462673 0.521041
vt 0.462977 0.520831
vt 0.462230 0.521223
vt 0.802029 0.507335
vt 0.463196 0.857751
vt 0.462887 0.857541
vt 0.463047 0.857097
vt 0.898410 0.052604
vt 0.898252 0.052173
vt 0.898554 0.051965
vt 0.897817 0.052353
vt 0.462435 0.857358
vt 0.802743 0.052430
vt 0.802586 0.051999
vt 0.802888 0.051792
vt 0.802150 0.052179
vt 0.557445 0.857138
vt 0.557285 0.857578
vt 0.556835 0.857397
vt 0.557590 0.857787
vt 0.898702 0.507860
vt 0.898404 0.507656
vt 0.898561 0.507226
vt 0.557307 0.521501
vt 0.557146 0.521061
vt 0.557455 0.520849
vt 0.556701 0.521244
vt 0.897964 0.507478
vt 0.861959 0.004261
vt 0.862771 0.003596
vt 0.862926 0.004352
vt 0.617244 0.904704
vt 0.617091 0.905383
vt 0.616376 0.904786
vt 0.617642 0.905633
vt 0.863450 0.003875
vt 0.863383 0.003339
vt 0.862611 0.555293
vt 0.862451 0.556053
vt 0.861649 0.555379
vt 0.863140 0.555774
vt 0.863069 0.556322
vt 0.522875 0.473854
vt 0.522725 0.473177
vt 0.523273 0.472933
vt 0.522003 0.473770
vt 0.522844 0.904702
vt 0.522690 0.905377
vt 0.521980 0.904782
vt 0.523239 0.905627
vt 0.958731 0.004351
vt 0.958576 0.003595
vt 0.959188 0.003339
vt 0.957765 0.004260
vt 0.958423 0.555309
vt 0.958263 0.556068
vt 0.957463 0.555394
vt 0.958880 0.556336
vt 0.617327 0.473854
vt 0.617176 0.473179
vt 0.617723 0.472936
vt 0.616457 0.473772
vt 0.799280 0.507063
vt 0.798907 0.506976
vt 0.798853 0.506597
vt 0.459062 0.521968
vt 0.459118 0.521578
vt 0.459502 0.521490
vt 0.793279 0.466569
vt 0.793779 0.466594
vt 0.793703 0.466996
vt 0.793301 0.467066
vt 0.459636 0.857089
vt 0.459251 0.856999
vt 0.459197 0.856608
vt 0.894714 0.053085
vt 0.894770 0.052704
vt 0.895145 0.052618
vt 0.459557 0.463959
vt 0.459532 0.464459
vt 0.459132 0.464382
vt 0.459062 0.463981
vt 0.799047 0.052909
vt 0.799103 0.052528
vt 0.799479 0.052442
vt 0.793283 0.005644
vt 0.793309 0.005144
vt 0.793709 0.005221
vt 0.793779 0.005622
vt 0.554040 0.857129
vt 0.553656 0.857040
vt 0.553602 0.856649
vt 0.895216 0.507207
vt 0.894842 0.507121
vt 0.894788 0.506742
vt 0.553528 0.521991
vt 0.553585 0.521601
vt 0.553969 0.521514
vt 0.459561 0.003033
vt 0.459062 0.003009
vt 0.459138 0.002607
vt 0.459540 0.002537
vt 0.593528 0.885377
vt 0.593347 0.885825
vt 0.592915 0.885605
vt 0.593624 0.886046
vt 0.838561 0.024412
vt 0.838374 0.023952
vt 0.838660 0.023724
vt 0.837931 0.024179
vt 0.846808 0.016311
vt 0.847601 0.015737
vt 0.847733 0.016435
vt 0.602545 0.893190
vt 0.602415 0.893863
vt 0.601654 0.893310
vt 0.602991 0.894068
vt 0.848197 0.015530
vt 0.601661 0.485367
vt 0.602429 0.484802
vt 0.602564 0.485487
vt 0.943293 0.543138
vt 0.943156 0.543839
vt 0.942369 0.543258
vt 0.943756 0.544055
vt 0.603016 0.484588
vt 0.934266 0.535775
vt 0.933976 0.535545
vt 0.934163 0.535080
vt 0.593502 0.493279
vt 0.593321 0.492838
vt 0.593593 0.492618
vt 0.592900 0.493056
vt 0.933527 0.535316
vt 0.817332 0.040562
vt 0.817152 0.040118
vt 0.817428 0.039897
vt 0.816726 0.040337
vt 0.572142 0.869136
vt 0.571959 0.869585
vt 0.571528 0.869364
vt 0.572238 0.869808
vt 0.825377 0.032688
vt 0.826135 0.032138
vt 0.826264 0.032807
vt 0.581231 0.877028
vt 0.581095 0.877715
vt 0.580323 0.877148
vt 0.581683 0.877929
vt 0.826706 0.031935
vt 0.922324 0.527592
vt 0.921750 0.527385
vt 0.921881 0.526717
vt 0.581210 0.501655
vt 0.581080 0.500977
vt 0.581659 0.500770
vt 0.580315 0.501533
vt 0.921000 0.526834
vt 0.572131 0.509446
vt 0.571949 0.509003
vt 0.572223 0.508781
vt 0.571523 0.509222
vt 0.913000 0.519009
vt 0.912820 0.519450
vt 0.912394 0.519234
vt 0.913092 0.519668
vt 0.836396 0.534966
vt 0.835850 0.534675
vt 0.836021 0.534001
vt 0.496800 0.494263
vt 0.496634 0.493616
vt 0.497153 0.493338
vt 0.495917 0.494215
vt 0.835115 0.534046
vt 0.509744 0.484525
vt 0.510157 0.484373
vt 0.510306 0.484804
vt 0.849767 0.543737
vt 0.849608 0.544189
vt 0.849174 0.544028
vt 0.849910 0.544389
vt 0.510447 0.484181
vt 0.475410 0.510452
vt 0.475245 0.509801
vt 0.475768 0.509526
vt 0.474520 0.510402
vt 0.814858 0.517925
vt 0.814692 0.518572
vt 0.813982 0.517971
vt 0.815215 0.518852
vt 0.828274 0.527291
vt 0.828124 0.527718
vt 0.827711 0.527567
vt 0.828407 0.527905
vt 0.488930 0.501017
vt 0.488779 0.500584
vt 0.489071 0.500392
vt 0.488365 0.500736
vt 0.583665 0.878332
vt 0.583376 0.878143
vt 0.583527 0.877709
vt 0.828468 0.032146
vt 0.828318 0.031720
vt 0.828604 0.031529
vt 0.827912 0.031871
vt 0.582955 0.877992
vt 0.570266 0.869102
vt 0.569739 0.868819
vt 0.569908 0.868167
vt 0.815159 0.041506
vt 0.814996 0.040861
vt 0.815515 0.040587
vt 0.814279 0.041458
vt 0.569023 0.868213
vt 0.604906 0.894471
vt 0.604620 0.894282
vt 0.604769 0.893855
vt 0.850010 0.015749
vt 0.849854 0.015307
vt 0.850150 0.015110
vt 0.849431 0.015465
vt 0.604210 0.894132
vt 0.591658 0.885343
vt 0.591135 0.885062
vt 0.591302 0.884415
vt 0.836320 0.025391
vt 0.836152 0.024720
vt 0.836692 0.024435
vt 0.835409 0.025343
vt 0.590427 0.884461
vt 0.931141 0.025481
vt 0.931887 0.024857
vt 0.932054 0.025530
vt 0.496957 0.884420
vt 0.496791 0.885068
vt 0.496081 0.884467
vt 0.497315 0.885349
vt 0.932430 0.024573
vt 0.510449 0.893819
vt 0.510298 0.894252
vt 0.509879 0.894100
vt 0.510586 0.894440
vt 0.945761 0.015859
vt 0.945604 0.015413
vt 0.945905 0.015213
vt 0.945179 0.015572
vt 0.910823 0.041667
vt 0.910659 0.041020
vt 0.911179 0.040746
vt 0.909942 0.041618
vt 0.475562 0.868195
vt 0.475393 0.868850
vt 0.474674 0.868242
vt 0.475922 0.869133
vt 0.923651 0.032001
vt 0.924057 0.031850
vt 0.924206 0.032276
vt 0.489178 0.877715
vt 0.489027 0.878150
vt 0.488606 0.877998
vt 0.489316 0.878338
vt 0.924343 0.031660
vt 0.932252 0.535051
vt 0.931708 0.534761
vt 0.931879 0.534089
vt 0.591327 0.494232
vt 0.591162 0.493584
vt 0.591683 0.493307
vt 0.590444 0.494183
vt 0.930973 0.534134
vt 0.604857 0.484808
vt 0.604706 0.484370
vt 0.604999 0.484180
vt 0.604284 0.484523
vt 0.945623 0.543834
vt 0.945465 0.544282
vt 0.945034 0.544123
vt 0.945763 0.544480
vt 0.569936 0.510405
vt 0.569771 0.509752
vt 0.570296 0.509476
vt 0.569044 0.510355
vt 0.910795 0.518053
vt 0.910629 0.518699
vt 0.909920 0.518099
vt 0.911151 0.518977
vt 0.582887 0.500705
vt 0.583301 0.500552
vt 0.583451 0.500985
vt 0.924133 0.527385
vt 0.923983 0.527812
vt 0.923571 0.527661
vt 0.924267 0.527999
vt 0.583593 0.500360
vt 0.912392 0.040494
vt 0.912817 0.040274
vt 0.912998 0.040718
vt 0.477805 0.869165
vt 0.477622 0.869616
vt 0.477188 0.869395
vt 0.477901 0.869839
vt 0.913094 0.040052
vt 0.487334 0.877931
vt 0.486748 0.877720
vt 0.486881 0.877038
vt 0.922003 0.032937
vt 0.921874 0.032267
vt 0.922445 0.032065
vt 0.921114 0.032816
vt 0.485981 0.877158
vt 0.499182 0.885382
vt 0.499000 0.885827
vt 0.498571 0.885609
vt 0.499273 0.886047
vt 0.934300 0.024551
vt 0.934113 0.024091
vt 0.934399 0.023863
vt 0.933670 0.024318
vt 0.508613 0.894032
vt 0.508031 0.893822
vt 0.508163 0.893144
vt 0.943478 0.016547
vt 0.943346 0.015848
vt 0.943943 0.015639
vt 0.942553 0.016422
vt 0.507271 0.893263
vt 0.817159 0.519546
vt 0.816886 0.519328
vt 0.817066 0.518885
vt 0.477596 0.509494
vt 0.477414 0.509052
vt 0.477687 0.508830
vt 0.476990 0.509272
vt 0.816460 0.519110
vt 0.486686 0.501689
vt 0.486555 0.501008
vt 0.487136 0.500802
vt 0.485784 0.501568
vt 0.826021 0.526622
vt 0.825890 0.527292
vt 0.825138 0.526740
vt 0.826464 0.527498
vt 0.498371 0.493086
vt 0.498795 0.492866
vt 0.498975 0.493310
vt 0.838308 0.534995
vt 0.838120 0.535461
vt 0.837672 0.535231
vt 0.838411 0.535691
vt 0.499070 0.492644
vt 0.508072 0.485474
vt 0.507941 0.484795
vt 0.508520 0.484589
vt 0.507171 0.485353
vt 0.847432 0.543040
vt 0.847294 0.543740
vt 0.846508 0.543159
vt 0.847895 0.543958
s 0
usemtl M_Frame
f 3/1/1 8/2/1 84/3/1 76/4/1
f 212/5/2 256/6/2 65/7/2 74/8/2
f 10/9/3 22/10/3 93/11/3 85/12/3
f 24/13/4 16/14/4 67/15/4 94/16/4
f 2/17/5 17/18/5 23/19/5 9/20/5
f 48/21/3 32/22/3 101/23/3 115/24/3
f 31/25/4 41/26/4 108/27/4 102/28/4
f 210/29/6 282/30/6 372/31/6 408/32/6
f 391/33/7 357/34/7 347/35/7 382/36/7
f 147/37/8 139/38/8 130/39/8 157/40/8
f 56/41/9 39/42/9 292/43/9 329/44/9
f 50/45/8 57/46/8 328/47/8 249/48/8
f 38/49/7 30/50/7 220/51/7 293/52/7
f 338/53/9 303/54/9 273/55/9 312/56/9
f 283/57/7 213/58/7 77/59/7 83/60/7
f 222/61/10 247/62/10 166/63/10 384/64/10
f 40/65/11 59/66/11 122/67/11 109/68/11
f 58/69/1 49/70/1 117/71/1 123/72/1
f 255/73/8 318/74/8 95/75/8 66/76/8
f 29/77/2 47/78/2 248/79/2 221/80/2
f 229/81/2 238/82/2 266/83/2 204/84/2
f 374/85/9 148/86/9 156/87/9 365/88/9
f 319/89/12 258/90/12 140/91/12 150/92/12
f 246/93/13 327/94/13 193/95/13 167/96/13
f 174/97/2 392/98/2 381/99/2 165/100/2
f 300/101/14 337/102/14 183/103/14 355/104/14
f 257/105/15 211/106/15 411/107/15 141/108/15
f 309/109/16 276/110/16 366/111/16 159/112/16
f 302/113/7 230/114/7 203/115/7 274/116/7
f 321/117/9 284/118/9 86/119/9 92/120/9
f 138/121/2 410/122/2 401/123/2 131/124/2
f 330/125/17 291/126/17 345/127/17 194/128/17
f 285/129/14 320/130/14 149/131/14 373/132/14
f 409/133/7 375/134/7 364/135/7 402/136/7
f 185/137/8 175/138/8 168/139/8 192/140/8
f 201/141/18 265/142/18 132/143/18 400/144/18
f 237/145/8 339/146/8 311/147/8 267/148/8
f 264/149/13 310/150/13 158/151/13 129/152/13
f 239/153/15 228/154/15 393/155/15 177/156/15
f 231/157/6 301/158/6 354/159/6 390/160/6
f 356/161/9 186/162/9 195/163/9 348/164/9
f 275/165/19 202/166/19 399/167/19 363/168/19
f 336/169/12 240/170/12 176/171/12 184/172/12
f 294/173/20 219/174/20 383/175/20 346/176/20
f 1/177/21 4/178/21 5/179/21 7/180/21
f 2/17/22 6/181/22 5/182/22 4/183/22
f 3/1/23 7/184/23 5/185/23 6/186/23
f 8/2/24 11/187/24 12/188/24 14/189/24
f 9/20/25 13/190/25 12/191/25 11/192/25
f 10/9/26 14/193/26 12/194/26 13/195/26
f 15/196/27 18/197/27 19/198/27 21/199/27
f 16/14/28 20/200/28 19/201/28 18/202/28
f 17/18/29 21/203/29 19/204/29 20/205/29
f 22/10/30 25/206/30 26/207/30 28/208/30
f 23/19/31 27/209/31 26/210/31 25/211/31
f 24/13/32 28/212/32 26/213/32 27/214/32
f 29/77/33 33/215/33 34/216/33 37/217/33
f 30/50/34 35/218/34 34/219/34 33/220/34
f 31/25/35 36/221/35 34/219/35 35/218/35
f 32/22/36 37/217/36 34/216/36 36/222/36
f 38/49/37 42/223/37 43/224/37 46/225/37
f 39/42/38 44/226/38 43/227/38 42/228/38
f 40/65/39 45/229/39 43/227/39 44/226/39
f 41/26/40 46/225/40 43/224/40 45/230/40
f 47/78/41 51/231/41 52/232/41 55/233/41
f 48/21/42 53/234/42 52/232/42 51/231/42
f 49/70/43 54/235/43 52/236/43 53/237/43
f 50/45/44 55/238/44 52/236/44 54/235/44
f 56/41/45 60/239/45 61/240/45 64/241/45
f 57/46/46 62/242/46 61/243/46 60/244/46
f 58/69/47 63/245/47 61/243/47 62/242/47
f 59/66/48 64/241/48 61/240/48 63/246/48
f 65/7/49 69/247/49 70/248/49 73/249/49
f 66/76/50 71/250/50 70/251/50 69/252/50
f 67/15/51 72/253/51 70/251/51 71/250/51
f 68/254/52 73/249/52 70/248/52 72/255/52
f 74/8/53 78/256/53 79/257/53 82/258/53
f 75/259/54 80/260/54 79/257/54 78/256/54
f 76/4/55 81/261/55 79/262/55 80/263/55
f 77/59/56 82/264/56 79/262/56 81/261/56
f 83/60/57 87/265/57 88/266/57 91/267/57
f 84/3/58 89/268/58 88/266/58 87/265/58
f 85/12/59 90/269/59 88/270/59 89/271/59
f 86/119/60 91/272/60 88/270/60 90/269/60
f 92/120/61 96/273/61 97/274/61 100/275/61
f 93/11/62 98/276/62 97/274/62 96/273/62
f 94/16/63 99/277/63 97/278/63 98/279/63
f 95/75/64 100/280/64 97/278/64 99/277/64
f 101/23/65 104/281/65 105/282/65 107/283/65
f 102/28/66 106/284/66 105/285/66 104/286/66
f 103/287/67 107/288/67 105/289/67 106/290/67
f 108/27/68 111/291/68 112/292/68 114/293/68
f 109/68/69 113/294/69 112/295/69 111/296/69
f 110/297/70 114/298/70 112/299/70 113/300/70
f 115/24/71 118/301/71 119/302/71 121/303/71
f 116/304/72 120/305/72 119/306/72 118/307/72
f 117/71/73 121/308/73 119/309/73 120/310/73
f 122/67/74 125/311/74 126/312/74 128/313/74
f 123/72/75 127/314/75 126/315/75 125/316/75
f 124/317/76 128/318/76 126/319/76 127/320/76
f 129/152/77 133/321/77 134/322/77 137/323/77
f 130/39/78 135/324/78 134/322/78 133/321/78
f 131/124/79 136/325/79 134/326/79 135/327/79
f 132/143/80 137/328/80 134/326/80 136/325/80
f 138/121/81 142/329/81 143/330/81 146/331/81
f 139/38/82 144/332/82 143/333/82 142/334/82
f 140/91/83 145/335/83 143/333/83 144/332/83
f 141/108/84 146/331/84 143/330/84 145/336/84
f 147/37/85 151/337/85 152/338/85 155/339/85
f 148/86/86 153/340/86 152/341/86 151/342/86
f 149/131/87 154/343/87 152/341/87 153/340/87
f 150/92/88 155/339/88 152/338/88 154/344/88
f 156/87/89 160/345/89 161/346/89 164/347/89
f 157/40/90 162/348/90 161/349/90 160/350/90
f 158/151/91 163/351/91 161/349/91 162/348/91
f 159/112/92 164/347/92 161/346/92 163/352/92
f 165/100/93 169/353/93 170/354/93 173/355/93
f 166/63/80 171/356/80 170/354/80 169/353/80
f 167/96/94 172/357/94 170/358/94 171/359/94
f 168/139/95 173/360/95 170/358/95 172/357/95
f 174/97/81 178/361/81 179/362/81 182/363/81
f 175/138/82 180/364/82 179/365/82 178/366/82
f 176/171/96 181/367/96 179/365/96 180/364/96
f 177/156/97 182/363/97 179/362/97 181/368/97
f 183/103/98 187/369/98 188/370/98 191/371/98
f 184/172/99 189/372/99 188/373/99 187/374/99
f 185/137/100 190/375/100 188/373/100 189/372/100
f 186/162/86 191/371/86 188/370/86 190/376/86
f 192/140/101 196/377/101 197/378/101 200/379/101
f 193/95/102 198/380/102 197/378/102 196/377/102
f 194/128/92 199/381/92 197/382/92 198/383/92
f 195/163/89 200/384/89 197/382/89 199/381/89
f 201/141/103 205/385/103 206/386/103 209/387/103
f 202/166/104 207/388/104 206/389/104 205/390/104
f 203/115/105 208/391/105 206/389/105 207/388/105
f 204/84/106 209/387/106 206/386/106 208/392/106
f 210/29/107 214/393/107 215/394/107 218/395/107
f 211/106/108 216/396/108 215/397/108 214/398/108
f 212/5/109 217/399/109 215/397/109 216/396/109
f 213/58/110 218/395/110 215/394/110 217/400/110
f 219/174/104 223/401/104 224/402/104 227/403/104
f 220/51/105 225/404/105 224/402/105 223/401/105
f 221/80/111 226/405/111 224/406/111 225/407/111
f 222/61/112 227/408/112 224/406/112 226/405/112
f 228/154/113 232/409/113 233/410/113 236/411/113
f 229/81/114 234/412/114 233/410/114 232/409/114
f 230/114/115 235/413/115 233/414/115 234/415/115
f 231/157/116 236/416/116 233/414/116 235/413/116
f 237/145/117 241/417/117 242/418/117 245/419/117
f 238/82/118 243/420/118 242/421/118 241/422/118
f 239/153/119 244/423/119 242/421/119 243/420/119
f 240/170/120 245/419/120 242/418/120 244/424/120
f 246/93/121 250/425/121 251/426/121 254/427/121
f 247/62/122 252/428/122 251/429/122 250/430/122
f 248/79/123 253/431/123 251/429/123 252/428/123
f 249/48/124 254/427/124 251/426/124 253/432/124
f 255/73/125 259/433/125 260/434/125 263/435/125
f 256/6/118 261/436/118 260/437/118 259/438/118
f 257/105/119 262/439/119 260/437/119 261/436/119
f 258/90/126 263/435/126 260/434/126 262/440/126
f 264/149/127 268/441/127 269/442/127 272/443/127
f 265/142/128 270/444/128 269/445/128 268/446/128
f 266/83/129 271/447/129 269/445/129 270/444/129
f 267/148/124 272/443/124 269/442/124 271/448/124
f 273/55/130 277/449/130 278/450/130 281/451/130
f 274/116/131 279/452/131 278/453/131 277/454/131
f 275/165/132 280/455/132 278/453/132 279/452/132
f 276/110/133 281/451/133 278/450/133 280/456/133
f 282/30/134 286/457/134 287/458/134 290/459/134
f 283/57/135 288/460/135 287/458/135 286/457/135
f 284/118/136 289/461/136 287/462/136 288/463/136
f 285/129/137 290/464/137 287/462/137 289/461/137
f 291/126/133 295/465/133 296/466/133 299/467/133
f 292/43/138 297/468/138 296/466/138 295/465/138
f 293/52/139 298/469/139 296/470/139 297/471/139
f 294/173/140 299/472/140 296/470/140 298/469/140
f 300/101/141 304/473/141 305/474/141 308/475/141
f 301/158/134 306/476/134 305/477/134 304/478/134
f 302/113/135 307/479/135 305/477/135 306/476/135
f 303/54/136 308/475/136 305/474/136 307/480/136
f 309/109/142 313/481/142 314/482/142 317/483/142
f 310/150/143 315/484/143 314/485/143 313/486/143
f 311/147/144 316/487/144 314/485/144 315/484/144
f 312/56/145 317/483/145 314/482/145 316/488/145
f 318/74/146 322/489/146 323/490/146 326/491/146
f 319/89/147 324/492/147 323/490/147 322/489/147
f 320/130/148 325/493/148 323/494/148 324/495/148
f 321/117/149 326/496/149 323/494/149 325/493/149
f 327/94/143 331/497/143 332/498/143 335/499/143
f 328/47/150 333/500/150 332/498/150 331/497/150
f 329/44/151 334/501/151 332/502/151 333/503/151
f 330/125/142 335/504/142 332/502/142 334/501/142
f 336/169/152 340/505/152 341/506/152 344/507/152
f 337/102/148 342/508/148 341/509/148 340/510/148
f 338/53/153 343/511/153 341/509/153 342/508/153
f 339/146/154 344/507/154 341/506/154 343/512/154
f 345/127/155 349/513/155 350/514/155 353/515/155
f 346/176/156 351/516/156 350/517/156 349/518/156
f 347/35/157 352/519/157 350/517/157 351/516/157
f 348/164/158 353/515/158 350/514/158 352/520/158
f 354/159/159 358/521/159 359/522/159 362/523/159
f 355/104/160 360/524/160 359/525/160 358/526/160
f 356/161/161 361/527/161 359/525/161 360/524/161
f 357/34/162 362/523/162 359/522/162 361/528/162
f 363/168/163 367/529/163 368/530/163 371/531/163
f 364/135/157 369/532/157 368/530/157 367/529/157
f 365/88/158 370/533/158 368/534/158 369/535/158
f 366/111/155 371/536/155 368/534/155 370/533/155
f 372/31/164 376/537/164 377/538/164 380/539/164
f 373/132/165 378/540/165 377/541/165 376/542/165
f 374/85/161 379/543/161 377/541/161 378/540/161
f 375/134/162 380/539/162 377/538/162 379/544/162
f 381/99/166 385/545/166 386/546/166 389/547/166
f 382/36/167 387/548/167 386/549/167 385/550/167
f 383/175/168 388/551/168 386/549/168 387/548/168
f 384/64/169 389/547/169 386/546/169 388/552/169
f 390/160/170 394/553/170 395/554/170 398/555/170
f 391/33/171 396/556/171 395/554/171 394/553/171
f 392/98/172 397/557/172 395/558/172 396/559/172
f 393/155/173 398/560/173 395/558/173 397/557/173
f 399/167/168 403/561/168 404/562/168 407/563/168
f 400/144/174 405/564/174 404/565/174 403/566/174
f 401/123/166 406/567/166 404/565/166 405/564/166
f 402/136/167 407/563/167 404/562/167 406/568/167
f 408/32/175 412/569/175 413/570/175 416/571/175
f 409/133/176 414/572/176 413/570/176 412/569/176
f 410/122/177 415/573/177 413/574/177 414/575/177
f 411/107/178 416/576/178 413/574/178 415/573/178
f 17/18/179 2/17/179 4/183/179 21/203/179
f 21/199/180 4/178/180 1/177/180 15/196/180
f 2/17/181 9/20/181 11/192/181 6/181/181
f 6/186/182 11/187/182 8/2/182 3/1/182
f 9/20/183 23/19/183 25/211/183 13/190/183
f 13/195/184 25/206/184 22/10/184 10/9/184
f 23/19/185 17/18/185 20/205/185 27/209/185
f 27/214/186 20/200/186 16/14/186 24/13/186
f 68/254/187 75/259/187 78/256/187 73/249/187
f 73/249/188 78/256/188 74/8/188 65/7/188
f 76/4/189 84/3/189 87/265/189 81/261/189
f 81/261/190 87/265/190 83/60/190 77/59/190
f 85/12/191 93/11/191 96/273/191 90/269/191
f 90/269/192 96/273/192 92/120/192 86/119/192
f 94/16/193 67/15/193 71/250/193 99/277/193
f 99/277/194 71/250/194 66/76/194 95/75/194
f 10/9/195 85/12/195 89/271/195 14/193/195
f 14/189/196 89/268/196 84/3/196 8/2/196
f 75/259/197 1/177/197 7/180/197 80/260/197
f 80/263/198 7/184/198 3/1/198 76/4/198
f 24/13/199 94/16/199 98/279/199 28/212/199
f 28/208/200 98/276/200 93/11/200 22/10/200
f 67/15/201 16/14/201 18/202/201 72/253/201
f 72/255/202 18/197/202 15/196/202 68/254/202
f 47/78/203 29/77/203 37/217/203 51/231/203
f 51/231/204 37/217/204 32/22/204 48/21/204
f 30/50/205 38/49/205 46/225/205 35/218/205
f 35/218/206 46/225/206 41/26/206 31/25/206
f 39/42/207 56/41/207 64/241/207 44/226/207
f 44/226/208 64/241/208 59/66/208 40/65/208
f 57/46/209 50/45/209 54/235/209 62/242/209
f 62/242/210 54/235/210 49/70/210 58/69/210
f 390/160/211 354/159/211 362/523/211 394/553/211
f 394/553/212 362/523/212 357/34/212 391/33/212
f 355/104/213 183/103/213 191/371/213 360/524/213
f 360/524/214 191/371/214 186/162/214 356/161/214
f 156/87/215 148/86/215 151/342/215 160/345/215
f 160/350/216 151/337/216 147/37/216 157/40/216
f 195/163/217 186/162/217 190/376/217 200/384/217
f 200/379/216 190/375/216 185/137/216 192/140/216
f 115/24/218 101/23/218 107/283/218 118/301/218
f 118/307/219 107/288/219 103/287/219 116/304/219
f 102/28/220 108/27/220 114/293/220 106/284/220
f 106/290/221 114/298/221 110/297/221 103/287/221
f 109/68/222 122/67/222 128/313/222 113/294/222
f 113/300/223 128/318/223 124/317/223 110/297/223
f 123/72/224 117/71/224 120/310/224 127/314/224
f 127/320/225 120/305/225 116/304/225 124/317/225
f 48/21/226 115/24/226 121/303/226 53/234/226
f 53/237/196 121/308/196 117/71/196 49/70/196
f 122/67/227 59/66/227 63/246/227 125/311/227
f 125/316/228 63/245/228 58/69/228 123/72/228
f 40/65/229 109/68/229 111/296/229 45/229/229
f 45/230/201 111/291/201 108/27/201 41/26/201
f 101/23/230 32/22/230 36/222/230 104/281/230
f 104/286/199 36/221/199 31/25/199 102/28/199
f 363/168/231 399/167/231 407/563/231 367/529/231
f 367/529/232 407/563/232 402/136/232 364/135/232
f 408/32/233 372/31/233 380/539/233 412/569/233
f 412/569/212 380/539/212 375/134/212 409/133/212
f 373/132/213 149/131/213 153/340/213 378/540/213
f 378/540/214 153/340/214 148/86/214 374/85/214
f 364/135/234 375/134/234 379/544/234 369/532/234
f 369/535/235 379/543/235 374/85/235 365/88/235
f 129/152/236 158/151/236 162/348/236 133/321/236
f 133/321/237 162/348/237 157/40/237 130/39/237
f 138/121/238 131/124/238 135/327/238 142/329/238
f 142/334/239 135/324/239 130/39/239 139/38/239
f 174/97/238 165/100/238 173/355/238 178/361/238
f 178/366/239 173/360/239 168/139/239 175/138/239
f 184/172/240 176/171/240 180/364/240 189/372/240
f 189/372/241 180/364/241 175/138/241 185/137/241
f 194/128/242 345/127/242 353/515/242 199/381/242
f 199/381/243 353/515/243 348/164/243 195/163/243
f 347/35/234 357/34/234 361/528/234 352/519/234
f 352/520/235 361/527/235 356/161/235 348/164/235
f 167/96/244 193/95/244 196/377/244 172/357/244
f 172/357/245 196/377/245 192/140/245 168/139/245
f 150/92/246 140/91/246 144/332/246 155/339/246
f 155/339/241 144/332/241 139/38/241 147/37/241
f 381/99/247 392/98/247 396/559/247 385/545/247
f 385/550/248 396/556/248 391/33/248 382/36/248
f 401/123/247 410/122/247 414/575/247 406/567/247
f 406/568/248 414/572/248 409/133/248 402/136/248
f 159/112/249 366/111/249 370/533/249 164/347/249
f 164/347/243 370/533/243 365/88/243 156/87/243
f 346/176/250 383/175/250 387/548/250 351/516/250
f 351/516/232 387/548/232 382/36/232 347/35/232
f 158/151/251 310/150/251 313/486/251 163/351/251
f 163/352/252 313/481/252 309/109/252 159/112/252
f 339/146/253 237/145/253 245/419/253 344/507/253
f 344/507/246 245/419/246 240/170/246 336/169/246
f 176/171/254 240/170/254 244/424/254 181/367/254
f 181/368/255 244/423/255 239/153/255 177/156/255
f 249/48/237 328/47/237 331/497/237 254/427/237
f 254/427/244 331/497/244 327/94/244 246/93/244
f 231/157/256 390/160/256 398/555/256 236/416/256
f 236/411/257 398/560/257 393/155/257 228/154/257
f 318/74/241 255/73/241 263/435/241 322/489/241
f 322/489/240 263/435/240 258/90/240 319/89/240
f 257/105/255 141/108/255 145/336/255 262/439/255
f 262/440/258 145/335/258 140/91/258 258/90/258
f 267/148/259 311/147/259 315/484/259 272/443/259
f 272/443/244 315/484/244 310/150/244 264/149/244
f 372/31/260 282/30/260 290/459/260 376/537/260
f 376/542/261 290/464/261 285/129/261 373/132/261
f 303/54/214 338/53/214 342/508/214 308/475/214
f 308/475/262 342/508/262 337/102/262 300/101/262
f 329/44/243 292/43/243 295/465/243 334/501/243
f 334/501/242 295/465/242 291/126/242 330/125/242
f 319/89/263 150/92/263 154/344/263 324/492/263
f 324/495/264 154/343/264 149/131/264 320/130/264
f 284/118/214 321/117/214 325/493/214 289/461/214
f 289/461/213 325/493/213 320/130/213 285/129/213
f 312/56/265 273/55/265 281/451/265 317/483/265
f 317/483/249 281/451/249 276/110/249 309/109/249
f 366/111/266 276/110/266 280/456/266 371/536/266
f 371/531/267 280/455/267 275/165/267 363/168/267
f 230/114/268 302/113/268 306/476/268 235/413/268
f 235/413/233 306/476/233 301/158/233 231/157/233
f 293/52/269 220/51/269 223/401/269 298/469/269
f 298/469/231 223/401/231 219/174/231 294/173/231
f 201/141/270 400/144/270 403/566/270 205/385/270
f 205/390/271 403/561/271 399/167/271 202/166/271
f 213/58/272 283/57/272 286/457/272 218/395/272
f 218/395/273 286/457/273 282/30/273 210/29/273
f 274/116/269 203/115/269 207/388/269 279/452/269
f 279/452/231 207/388/231 202/166/231 275/165/231
f 238/82/274 229/81/274 232/409/274 243/420/274
f 243/420/275 232/409/275 228/154/275 239/153/275
f 221/80/276 248/79/276 252/428/276 226/405/276
f 226/405/277 252/428/277 247/62/277 222/61/277
f 256/6/274 212/5/274 216/396/274 261/436/274
f 261/436/275 216/396/275 211/106/275 257/105/275
f 204/84/278 266/83/278 270/444/278 209/387/278
f 209/387/279 270/444/279 265/142/279 201/141/279
f 86/119/235 284/118/235 288/463/235 91/272/235
f 91/267/234 288/460/234 283/57/234 83/60/234
f 212/5/247 74/8/247 82/258/247 217/399/247
f 217/400/280 82/264/280 77/59/280 213/58/280
f 203/115/280 230/114/280 234/415/280 208/391/280
f 208/392/247 234/412/247 229/81/247 204/84/247
f 237/145/239 267/148/239 271/448/239 241/417/239
f 241/422/238 271/447/238 266/83/238 238/82/238
f 273/55/235 303/54/235 307/480/235 277/449/235
f 277/454/234 307/479/234 302/113/234 274/116/234
f 255/73/239 66/76/239 69/252/239 259/433/239
f 259/438/238 69/247/238 65/7/238 256/6/238
f 220/51/280 30/50/280 33/220/280 225/404/280
f 225/407/247 33/215/247 29/77/247 221/80/247
f 50/45/239 249/48/239 253/432/239 55/238/239
f 55/233/238 253/431/238 248/79/238 47/78/238
f 292/43/235 39/42/235 42/228/235 297/468/235
f 297/471/234 42/223/234 38/49/234 293/52/234
f 56/41/217 329/44/217 333/503/217 60/239/217
f 60/244/216 333/500/216 328/47/216 57/46/216
f 338/53/215 312/56/215 316/488/215 343/511/215
f 343/512/216 316/487/216 311/147/216 339/146/216
f 321/117/215 92/120/215 100/275/215 326/496/215
f 326/491/216 100/280/216 95/75/216 318/74/216
f 177/156/281 393/155/281 397/557/281 182/363/281
f 182/363/282 397/557/282 392/98/282 174/97/282
f 384/64/277 166/63/277 169/353/277 389/547/277
f 389/547/278 169/353/278 165/100/278 381/99/278
f 141/108/275 411/107/275 415/573/275 146/331/275
f 146/331/274 415/573/274 410/122/274 138/121/274
f 400/144/277 132/143/277 136/325/277 405/564/277
f 405/564/276 136/325/276 131/124/276 401/123/276
f 246/93/283 167/96/283 171/359/283 250/425/283
f 250/430/284 171/356/284 166/63/284 247/62/284
f 383/175/285 219/174/285 227/403/285 388/551/285
f 388/552/286 227/408/286 222/61/286 384/64/286
f 132/143/284 265/142/284 268/446/284 137/328/284
f 137/323/283 268/441/283 264/149/283 129/152/283
f 210/29/287 408/32/287 416/571/287 214/393/287
f 214/398/288 416/576/288 411/107/288 211/106/288
f 300/101/289 355/104/289 358/526/289 304/473/289
f 304/478/290 358/521/290 354/159/290 301/158/290
f 183/103/291 337/102/291 340/510/291 187/369/291
f 187/374/292 340/505/292 336/169/292 184/172/292
f 345/127/293 291/126/293 299/467/293 349/513/293
f 349/518/267 299/472/267 294/173/267 346/176/267
f 193/95/294 327/94/294 335/499/294 198/380/294
f 198/383/252 335/504/252 330/125/252 194/128/252
f 15/196/11 1/177/11 75/259/11 68/254/11
