# Blender 4.1.1
# www.blender.org
mtllib frame.mtl
o frame_01_Target2
v -0.354535 -0.354535 -0.055688
v 0.354535 -0.354535 -0.055688
v -0.354535 0.354535 -0.055688
v 0.354535 0.354535 -0.055688
v -0.258527 -0.258527 -0.055688
v 0.258527 -0.258527 -0.055688
v -0.258527 0.258527 -0.055688
v 0.258527 0.258527 -0.055688
v 0.258725 0.258726 0.007612
v -0.258726 0.258726 0.007612
v -0.258726 -0.258725 0.007612
v 0.258725 -0.258725 0.007612
v 0.258725 0.258726 0.011839
v 0.258527 0.258527 -0.055688
v -0.258726 0.258726 0.011839
v -0.258527 0.258527 -0.055688
v -0.258726 -0.258725 0.011839
v -0.258527 -0.258527 -0.055688
v 0.258725 -0.258725 0.011839
v 0.258527 -0.258527 -0.055688
v -0.354535 0.354535 0.020850
v -0.350757 0.350757 0.026958
v -0.350757 -0.350756 0.026958
v -0.354535 -0.354535 0.020851
v 0.354535 -0.354535 0.020851
v 0.350756 -0.350756 0.026958
v 0.350756 0.350757 0.026958
v 0.354535 0.354535 0.020850
v 0.258881 0.258882 0.028563
v 0.261758 0.261758 0.032955
v 0.261758 -0.261758 0.032955
v 0.258881 -0.258881 0.028563
v -0.261758 -0.261758 0.032955
v -0.258882 -0.258881 0.028563
v -0.258882 0.258882 0.028563
v -0.261758 0.261758 0.032955
v 0.250467 -0.250467 0.008015
v 0.250467 0.250467 0.008015
v -0.250467 -0.250467 0.008015
v -0.250467 0.250467 0.008015
v -0.250623 -0.250623 0.028965
v -0.250623 0.250623 0.028965
v 0.250623 0.250623 0.028966
v 0.250623 -0.250623 0.028966
vn 0.0672 -0.0000 0.9977
vn -0.0672 -0.0000 0.9977
vn -0.0000 -0.0672 0.9977
vn -0.0000 -1.0000 -0.0000
vn -0.0000 1.0000 -0.0000
vn -0.0000 -0.0487 0.9988
vn -0.0000 -0.0000 -1.0000
vn 1.0000 -0.0000 -0.0000
vn -0.0000 -0.0487 -0.9988
vn 0.0487 -0.0000 0.9988
vn -0.0487 -0.0000 0.9988
vn -0.0000 -0.0000 1.0000
vn -1.0000 -0.0000 -0.0000
vn -1.0000 -0.0000 0.0029
vn -0.0000 1.0000 0.0029
vn -0.0000 -1.0000 0.0029
vn 1.0000 -0.0000 0.0029
vn -0.0000 -0.8504 0.5262
vn -0.0000 0.8504 0.5262
vn 0.8504 -0.0000 0.5262
vn -0.8504 -0.0000 0.5262
vn 0.8366 -0.0000 0.5479
vn -0.0000 -0.8366 0.5479
vn -0.0000 0.8366 0.5479
vn -0.8366 -0.0000 0.5479
vn -0.0000 0.0672 0.9977
vn -0.0000 1.0000 0.0074
vn 1.0000 -0.0000 0.0074
vn -1.0000 -0.0000 0.0074
vn -0.0000 -1.0000 0.0074
vn -0.0487 -0.0000 -0.9988
vn -0.0000 0.0487 0.9988
vn 0.0487 -0.0000 -0.9988
vn -0.0000 0.0487 -0.9988
vt 0.993625 0.006405
vt 0.993752 0.993462
vt 0.874456 0.867483
vt 0.874753 0.128936
vt 0.006299 0.993317
vt 0.006273 0.006932
vt 0.133891 0.128952
vt 0.133591 0.867478
vt 0.874753 0.128936
vt 0.133891 0.128952
vt 0.801580 0.805435
vt 0.801580 0.193470
vt 0.834549 0.193470
vt 0.834549 0.805435
vt 0.338767 0.194796
vt 0.338767 0.804110
vt 0.305798 0.804110
vt 0.305798 0.194796
vt 0.137560 0.132388
vt 0.871356 0.132388
vt 0.263446 0.194796
vt 0.263446 0.804110
vt 0.204236 0.804110
vt 0.204236 0.194796
vt 0.533766 0.801204
vt 0.533766 0.189239
vt 0.617501 0.189239
vt 0.617501 0.801204
vt 0.422502 0.194796
vt 0.422502 0.804110
vt 0.717845 0.805435
vt 0.717845 0.193470
vt 0.296415 0.194796
vt 0.296415 0.804110
vt 0.441333 0.804110
vt 0.441333 0.194796
vt 0.170625 0.804110
vt 0.170625 0.194796
vt 0.651112 0.189239
vt 0.651112 0.801204
vt 0.699014 0.805435
vt 0.699014 0.193470
vt 0.636332 0.189239
vt 0.636332 0.801204
vt 0.185406 0.804110
vt 0.185406 0.194796
vt 0.001319 0.002215
vt 0.998206 0.001666
vt 0.303468 0.800863
vt 0.301106 0.198043
vt 0.298745 0.800863
vt 0.498467 0.797943
vt 0.498467 0.192501
vt 0.500797 0.189239
vt 0.500797 0.801204
vt 0.655163 0.189239
vt 0.655163 0.801204
vt 0.456114 0.804110
vt 0.456114 0.194796
vt 0.460164 0.194796
vt 0.460164 0.804110
vt 0.166575 0.804110
vt 0.166575 0.194796
vt 0.133591 0.867478
vt 0.874456 0.867483
vt 0.684233 0.805435
vt 0.684233 0.193470
s 1
f 26/1/1 27/2/1 30/3/1 31/4/1
f 22/5/2 23/6/2 33/7/2 36/8/2
f 23/6/3 26/1/3 31/9/3 33/10/3
f 1/11/4 2/12/4 25/13/4 24/14/4
f 4/15/5 3/16/5 21/17/5 28/18/5
f 34/19/6 32/20/6 44/20/6 41/19/6
f 4/21/7 2/22/7 6/23/7 8/24/7
f 1/25/7 3/26/7 7/27/7 5/28/7
f 3/16/7 4/15/7 8/29/7 7/30/7
f 2/12/7 1/11/7 5/31/7 6/32/7
f 2/22/8 4/21/8 28/33/8 25/34/8
f 10/35/9 9/36/9 38/36/9 40/35/9
f 32/37/10 29/38/10 43/38/10 44/37/10
f 35/39/11 34/40/11 41/40/11 42/39/11
f 5/28/12 7/27/12 16/27/12 18/28/12
f 8/24/12 6/23/12 20/23/12 14/24/12
f 11/41/4 12/42/4 19/42/4 17/41/4
f 10/43/13 11/44/13 17/44/13 15/43/13
f 14/24/14 20/23/14 19/45/14 13/46/14
f 18/31/15 17/41/15 19/42/15 20/32/15
f 14/29/16 13/36/16 15/35/16 16/30/16
f 16/27/17 15/43/17 17/44/17 18/28/17
f 9/36/5 10/35/5 15/35/5 13/36/5
f 12/45/8 9/46/8 13/46/8 19/45/8
f 7/30/12 8/29/12 14/29/12 16/30/12
f 6/32/12 5/31/12 18/31/12 20/32/12
f 26/1/18 23/6/18 24/47/18 25/48/18
f 22/49/19 27/50/19 28/18/19 21/17/19
f 27/50/20 26/51/20 25/34/20 28/33/20
f 23/52/21 22/53/21 21/54/21 24/55/21
f 3/26/13 1/25/13 24/55/13 21/54/13
f 34/40/22 35/39/22 36/56/22 33/57/22
f 35/58/23 29/59/23 30/60/23 36/61/23
f 32/20/24 34/19/24 33/10/24 31/9/24
f 29/38/25 32/37/25 31/62/25 30/63/25
f 27/2/26 22/5/26 36/64/26 30/65/26
f 39/41/27 41/66/27 44/67/27 37/42/27
f 40/43/28 42/39/28 41/40/28 39/44/28
f 38/46/29 37/45/29 44/37/29 43/38/29
f 38/36/30 43/59/30 42/58/30 40/35/30
f 9/46/31 12/45/31 37/45/31 38/46/31
f 29/59/32 35/58/32 42/58/32 43/59/32
f 11/44/33 10/43/33 40/43/33 39/44/33
f 12/42/34 11/41/34 39/41/34 37/42/34
