# Blender 4.1.1
# www.blender.org
mtllib modern_frame.mtl
o modernframe
v 0.596150 -0.600083 0.031276
v -0.596150 -0.600083 0.031276
v 0.596150 0.571570 0.031276
v -0.596150 0.571570 0.031276
v 0.496946 -0.517053 0.031276
v -0.496946 -0.517053 0.031276
v 0.496946 0.498068 0.031276
v -0.496946 0.498068 0.031276
v -0.497152 0.498220 -0.004493
v 0.497152 0.498220 -0.004493
v 0.497152 -0.517451 -0.004493
v -0.497152 -0.517451 -0.004493
v -0.497152 0.498220 -0.006881
v -0.496946 0.498068 0.031276
v 0.497152 0.498220 -0.006881
v 0.496946 0.498068 0.031276
v 0.497152 -0.517451 -0.006881
v 0.496946 -0.517053 0.031276
v -0.497152 -0.517451 -0.006881
v -0.496946 -0.517053 0.031276
v 0.596150 -0.600083 -0.011973
v 0.592245 -0.592526 -0.015424
v 0.592245 0.568677 -0.015424
v 0.596150 0.571570 -0.011973
v -0.596150 -0.600083 -0.011973
v -0.592245 -0.592526 -0.015424
v -0.592245 0.568677 -0.015424
v -0.596150 0.571570 -0.011973
v -0.497313 0.498340 -0.016331
v -0.500285 0.500542 -0.018813
v -0.500285 -0.523516 -0.018813
v -0.497313 -0.517763 -0.016331
v 0.497313 0.498340 -0.016331
v 0.500285 0.500542 -0.018813
v 0.500285 -0.523516 -0.018813
v 0.497313 -0.517763 -0.016331
v -0.488619 -0.500934 -0.004720
v -0.488619 0.491898 -0.004720
v 0.488619 -0.500934 -0.004720
v 0.488619 0.491898 -0.004720
v 0.488780 0.492018 -0.016558
v 0.488780 -0.501246 -0.016558
v -0.488780 0.492018 -0.016558
v -0.488780 -0.501246 -0.016558
v 0.000000 -0.592526 -0.015424
v 0.000000 -0.523516 -0.018813
v 0.000000 -0.600083 0.031276
v 0.000000 -0.600083 -0.011973
v 0.000000 0.571570 0.031276
v 0.000000 0.571570 -0.011973
v 0.000000 -0.517763 -0.016331
v 0.000000 -0.501246 -0.016558
v 0.000000 0.498068 0.031276
v 0.000000 -0.517053 0.031276
v 0.000000 0.498220 -0.004493
v 0.000000 0.491898 -0.004720
v 0.000000 -0.517451 -0.004493
v 0.000000 -0.517451 -0.006881
v 0.000000 -0.517053 0.031276
v 0.000000 0.498220 -0.006881
v 0.000000 0.498068 0.031276
v 0.000000 0.568677 -0.015424
v 0.000000 0.498340 -0.016331
v 0.000000 0.500542 -0.018813
v 0.000000 -0.500934 -0.004720
v 0.000000 0.492018 -0.016558
vn -0.0368 -0.0000 -0.9993
vn -0.0000 0.0359 -0.9994
vn -0.0000 -0.0490 -0.9988
vn -0.0000 -1.0000 -0.0000
vn -0.0000 0.9999 -0.0104
vn -0.0000 -0.0138 -0.9999
vn -0.0000 -0.0000 1.0000
vn 0.0368 -0.0000 -0.9993
vn -1.0000 -0.0000 -0.0000
vn -0.0000 -0.0360 0.9994
vn -0.0266 -0.0000 -0.9996
vn -0.0000 0.3961 -0.9182
vn 1.0000 -0.0000 -0.0000
vn 1.0000 -0.0000 -0.0054
vn -1.0000 -0.0000 -0.0054
vn 0.6622 -0.0000 -0.7493
vn -0.0000 0.7663 -0.6424
vn -0.6622 -0.0000 -0.7493
vn -0.0000 0.0497 -0.9988
vn -0.0000 -0.7480 -0.6637
vn -0.0000 0.9997 -0.0264
vn 0.6410 -0.0000 -0.7676
vn -0.0266 -0.0000 0.9996
vn -0.0000 -0.4154 -0.9097
vn 0.9999 -0.0000 -0.0136
vn -0.0000 1.0000 -0.0000
vn 0.0266 -0.0000 0.9996
vn -0.0000 0.0138 0.9999
vn -0.0000 -1.0000 -0.0040
vn -0.9999 -0.0000 -0.0136
vn 0.0266 -0.0000 -0.9996
vn -0.0000 -0.9999 -0.0101
vn -0.6410 -0.0000 -0.7676
vt 0.993625 0.006405
vt 0.993752 0.993462
vt 0.874456 0.867483
vt 0.874753 0.128936
vt 0.456114 0.194796
vt 0.456114 0.495617
vt 0.456114 0.493315
vt 0.541643 0.006646
vt 0.874753 0.128936
vt 0.512727 0.128944
vt 0.801580 0.472981
vt 0.801580 0.193470
vt 0.834549 0.193470
vt 0.834549 0.472981
vt 0.717845 0.493385
vt 0.717845 0.193470
vt 0.699014 0.193470
vt 0.699014 0.493331
vt 0.511849 0.132388
vt 0.871356 0.132388
vt 0.509078 0.132388
vt 0.263446 0.194796
vt 0.263446 0.804110
vt 0.204236 0.804110
vt 0.204236 0.194796
vt 0.338767 0.473096
vt 0.338767 0.194796
vt 0.422502 0.194796
vt 0.422502 0.493412
vt 0.296415 0.194796
vt 0.296415 0.804110
vt 0.441333 0.493358
vt 0.441333 0.194796
vt 0.441333 0.495661
vt 0.170625 0.804110
vt 0.170625 0.194796
vt 0.185406 0.804110
vt 0.185406 0.194796
vt 0.422502 0.493412
vt 0.301106 0.198043
vt 0.298745 0.800863
vt 0.302187 0.473997
vt 0.305798 0.194796
vt 0.305798 0.473096
vt 0.874456 0.867483
vt 0.512429 0.867480
vt 0.541724 0.993396
vt 0.460164 0.194796
vt 0.460164 0.492540
vt 0.699014 0.495645
vt 0.684233 0.193470
vt 0.684233 0.495600
vt 0.166575 0.804110
vt 0.166575 0.194796
vt 0.998206 0.001666
vt 0.542885 0.001917
s 1
f 26/1/1 27/2/1 30/3/1 31/4/1
f 33/5/2 41/5/2 66/6/2 63/7/2
f 45/8/3 26/1/3 31/9/3 46/10/3
f 47/11/4 2/12/4 25/13/4 48/14/4
f 59/15/5 18/16/5 17/17/5 58/18/5
f 51/19/6 32/20/6 44/20/6 52/21/6
f 4/22/7 2/23/7 6/24/7 8/25/7
f 45/8/3 46/10/3 35/9/3 22/1/3
f 49/26/7 4/27/7 8/28/7 53/29/7
f 22/1/8 35/4/8 34/3/8 23/2/8
f 2/23/9 4/22/9 28/30/9 25/31/9
f 55/32/10 9/33/10 38/33/10 56/34/10
f 32/35/11 29/36/11 43/36/11 44/35/11
f 36/20/12 35/9/12 46/10/12 51/19/12
f 57/18/4 58/18/4 17/17/4 11/17/4
f 8/25/7 6/24/7 20/24/7 14/25/7
f 57/18/4 12/17/4 19/17/4 58/18/4
f 1/23/13 21/31/13 24/30/13 3/22/13
f 14/25/14 20/24/14 19/37/14 13/38/14
f 59/15/5 58/18/5 19/17/5 20/16/5
f 3/22/7 7/25/7 5/24/7 1/23/7
f 16/25/15 15/38/15 17/37/15 18/24/15
f 51/19/6 52/21/6 42/20/6 36/20/6
f 12/37/9 9/38/9 13/38/9 19/37/9
f 53/29/7 8/28/7 14/28/7 61/39/7
f 7/25/7 16/25/7 18/24/7 5/24/7
f 23/40/16 24/30/16 21/31/16 22/41/16
f 62/42/17 27/40/17 28/43/17 50/44/17
f 27/40/18 26/41/18 25/31/18 28/30/18
f 53/29/7 61/39/7 16/28/7 7/28/7
f 62/42/17 50/44/17 24/43/17 23/40/17
f 23/2/19 34/45/19 64/46/19 62/47/19
f 63/7/20 29/5/20 30/48/20 64/49/20
f 65/50/21 39/17/21 42/51/21 52/52/21
f 29/36/22 32/35/22 31/53/22 30/54/22
f 10/38/23 40/38/23 39/37/23 11/37/23
f 65/50/21 52/52/21 44/51/21 37/17/21
f 22/1/24 21/55/24 48/56/24 45/8/24
f 38/38/25 37/37/25 44/35/25 43/36/25
f 3/27/26 24/43/26 50/44/26 49/26/26
f 9/38/27 12/37/27 37/37/27 38/38/27
f 1/12/7 5/16/7 54/15/7 47/11/7
f 11/17/28 39/17/28 65/50/28 57/18/28
f 16/28/29 61/39/29 60/32/29 15/33/29
f 40/38/30 41/36/30 42/35/30 39/37/30
f 29/5/2 63/7/2 66/6/2 43/5/2
f 27/2/19 62/47/19 64/46/19 30/45/19
f 14/28/29 13/33/29 60/32/29 61/39/29
f 36/35/31 42/35/31 41/36/31 33/36/31
f 55/32/10 56/34/10 40/33/10 10/33/10
f 12/17/28 57/18/28 65/50/28 37/17/28
f 38/33/32 43/5/32 66/6/32 56/34/32
f 40/33/32 56/34/32 66/6/32 41/5/32
f 9/33/26 55/32/26 60/32/26 13/33/26
f 6/16/7 54/15/7 59/15/7 20/16/7
f 49/26/7 53/29/7 7/28/7 3/27/7
f 10/33/26 15/33/26 60/32/26 55/32/26
f 5/16/7 18/16/7 59/15/7 54/15/7
f 11/37/13 17/37/13 15/38/13 10/38/13
f 4/27/26 49/26/26 50/44/26 28/43/26
f 47/11/4 48/14/4 21/13/4 1/12/4
f 63/7/20 64/49/20 34/48/20 33/5/20
f 2/12/7 47/11/7 54/15/7 6/16/7
f 32/20/12 51/19/12 46/10/12 31/9/12
f 33/36/33 34/54/33 35/53/33 36/35/33
f 26/1/24 45/8/24 48/56/24 25/55/24
